<svg width="38" height="38" viewBox="0 0 38 38" fill="none" xmlns="http://www.w3.org/2000/svg">
<path d="M18.9997 4.35425C13.1572 4.35425 8.39136 9.12008 8.39136 14.9626C8.39136 22.2142 17.8914 32.8859 18.2872 33.3293C18.6672 33.7568 19.3322 33.7568 19.7122 33.3293C20.1238 32.8859 29.608 22.2142 29.608 14.9626C29.608 9.12008 24.8422 4.35425 18.9997 4.35425Z" stroke="#CD0000" stroke-width="3" stroke-linecap="round" stroke-linejoin="round"/>
<path d="M19.6089 18.6599C21.6556 18.3342 23.0507 16.4108 22.725 14.3641C22.3992 12.3173 20.4759 10.9222 18.4291 11.248C16.3824 11.5738 14.9872 13.4971 15.313 15.5439C15.6388 17.5906 17.5621 18.9857 19.6089 18.6599Z" stroke="#CD0000" stroke-width="3" stroke-linecap="round" stroke-linejoin="round"/>
</svg>
