<svg width="221" height="147" viewBox="0 0 221 147" fill="none" xmlns="http://www.w3.org/2000/svg">
<g id="_&#195;&#144;&#194;&#161;&#195;&#144;&#194;&#187;&#195;&#144;&#194;&#190;&#195;&#144;&#194;&#185;_1" clip-path="url(#clip0_157_3396)">
<path id="Vector" d="M131.919 84.831C131.403 84.0438 130.932 83.4224 130.416 82.6314C130.303 82.4845 130.137 82.1832 130.032 82.025C129.851 81.7614 129.697 81.4789 129.531 81.2077C128.367 82.5636 127.391 83.5919 126.638 84.2623C125.727 85.0796 124.936 85.4826 124.273 85.4826C123.844 85.4826 123.489 85.3093 123.226 84.9591C122.958 84.6088 122.827 84.1191 122.827 83.4864C122.827 82.4883 123.294 79.8631 124.224 75.607C125.056 71.8821 125.459 69.5619 125.587 68.7409C125.651 68.3228 125.663 68.2663 125.697 67.9725L123.034 67.8407L120.416 67.7654C120.416 67.7654 120.009 69.2682 119.746 70.2663C118.943 73.2267 118.122 75.72 117.279 77.7464C116.427 79.7765 115.633 81.2906 114.887 82.2849C114.137 83.283 113.512 83.7802 113.015 83.7802C112.646 83.7802 112.386 83.637 112.217 83.3583C112.051 83.0759 111.968 82.5862 111.968 81.8894C111.968 80.7256 112.299 78.398 112.966 74.9065C113.166 73.9084 113.429 72.7935 113.765 71.5619C114.134 70.0328 114.326 69.0949 114.382 68.8388C114.495 68.3002 114.578 67.7616 114.578 67.7616L111.787 67.6524L109.162 67.5808C108.88 68.0591 108.461 69.2644 108.126 70.2625C107.825 71.174 107.588 72.0553 107.354 72.9254C108.944 72.8086 110.778 74.1344 110.367 76.2021C109.614 79.9987 108.141 83.5128 106.48 86.9628C106.71 87.6596 107.004 88.3112 107.399 88.8874C108.348 90.2697 109.569 90.959 111.064 90.959C112.363 90.959 113.576 90.3526 114.706 89.136C115.832 87.9232 116.684 86.1869 117.249 83.9233C117.249 86.1492 117.621 87.878 118.371 89.1096C119.12 90.3413 120.288 90.9552 121.885 90.9552C123.983 90.9552 125.851 90.3902 127.497 89.2603C129.124 88.1417 130.634 86.7255 132.054 84.9854C132.009 84.9252 131.968 84.8724 131.926 84.8122V84.8272L131.919 84.831Z" fill="white"/>
<path id="Vector_2" d="M169.293 81.5316L169.071 81.799C167.839 83.2943 166.935 84.3263 166.355 84.8913C165.771 85.46 165.184 85.7425 164.585 85.7425C163.154 85.7425 162.442 83.9986 162.442 80.5034C162.442 79.2755 162.415 77.2831 162.551 74.4884L162.739 70.7747C162.792 69.7277 162.833 68.3303 162.849 67.803L159.033 67.6599L155.794 67.5808C155.564 68.1684 154.83 69.7955 154.208 71.2192C153.598 72.6203 153.003 74.2813 152.19 76.1117C151.372 77.9422 150.581 79.5881 149.821 81.0495C148.822 82.9779 148.118 84.1945 147.7 84.6916C147.286 85.1888 146.909 85.4374 146.578 85.4374C145.975 85.4374 145.677 84.8385 145.677 83.6408C145.677 83.2943 145.726 82.767 145.813 82.0928C143.915 82.1004 142.035 82.2887 140.148 82.4205C139.998 83.0382 139.892 83.6973 139.892 84.4393C139.892 86.3037 140.374 87.8479 141.339 89.0758C142.303 90.3074 143.632 90.9213 145.327 90.9213C147.821 90.9213 150.043 89.7236 151.986 87.3281C153.93 84.9365 155.568 81.5241 156.898 77.1023H156.999C156.864 78.5675 156.8 80.0778 156.8 81.6408C156.8 84.767 157.214 87.1021 158.046 88.6501C158.883 90.1981 160.272 90.9703 162.238 90.9703C163.734 90.9703 165.071 90.6802 166.253 90.0965C167.323 89.5692 168.216 88.9515 168.988 88.2584C169.187 86.0174 169.41 83.7764 169.293 81.5241V81.5354V81.5316Z" fill="white"/>
<path id="Vector_3" d="M192.886 80.202C193.134 80.5975 193.259 81.1474 193.259 81.8479C193.259 83.1812 192.942 84.2095 192.309 84.9402C191.078 86.4354 189.345 87.8177 187.097 89.0832C184.852 90.3487 182.449 90.9777 179.892 90.9777C176.4 90.9777 173.692 90.0286 171.756 88.1341C169.828 86.2358 168.867 83.6445 168.867 80.3527C168.867 78.0589 169.349 75.9234 170.314 73.946C171.278 71.9686 172.615 70.3943 174.329 69.2342C176.042 68.0704 177.978 67.4904 180.14 67.4904C182.069 67.4904 183.613 68.0628 184.78 69.2116C185.94 70.3566 186.524 71.9121 186.524 73.8744C186.524 76.1682 185.699 78.138 184.057 79.7839C182.411 81.4299 179.628 82.733 175.703 83.6972C176.536 85.2264 178.11 85.991 180.441 85.991C181.937 85.991 183.639 85.4675 185.552 84.4204C187.462 83.3696 189.119 82.0024 190.517 80.3037C190.916 79.8404 191.368 79.6069 191.865 79.6069C192.298 79.6069 192.641 79.8065 192.889 80.2058L192.882 80.1982L192.886 80.202ZM173.108 63.3172C172.506 62.7334 172.212 61.8294 172.212 60.5978C172.212 59.2683 172.57 58.2287 173.285 57.4792C174.001 56.7297 174.954 56.3606 176.155 56.3606C177.221 56.3606 178.05 56.6506 178.649 57.2306C179.251 57.8144 179.549 58.7184 179.549 59.9462C179.549 61.2795 179.191 62.3191 178.472 63.0648C177.756 63.8143 176.803 64.191 175.609 64.191C174.543 64.191 173.711 63.901 173.116 63.3209H173.112L173.108 63.3172ZM176.174 74.5185C175.327 75.946 174.901 77.6747 174.901 79.7048V79.8065C176.863 79.3433 178.411 78.6465 179.545 77.7124C180.671 76.7821 181.24 75.7011 181.24 74.4695C181.24 73.8368 181.067 73.3283 180.716 72.9479C180.366 72.5675 179.892 72.3716 179.296 72.3716C178.065 72.3716 177.029 73.0872 176.182 74.5147H176.178L176.174 74.5185ZM183.485 63.3172C182.882 62.7334 182.588 61.8294 182.588 60.5978C182.588 59.2683 182.95 58.2287 183.662 57.4792C184.377 56.7297 185.33 56.3606 186.528 56.3606C187.594 56.3606 188.422 56.6506 189.021 57.2306C189.624 57.8144 189.922 58.7184 189.922 59.9462C189.922 61.2795 189.564 62.3191 188.848 63.0648C188.132 63.8143 187.18 64.191 185.982 64.191C184.916 64.191 184.087 63.901 183.488 63.3209H183.492L183.485 63.3172Z" fill="white"/>
<path id="Vector_4" d="M211.94 81.0684C210.012 82.3716 208.038 83.7802 205.978 85.3847C206.144 84.3188 206.305 83.3132 206.452 82.3678C206.603 81.4224 206.746 80.5449 206.878 79.7464C207.575 75.5581 207.993 72.948 208.125 71.916C208.159 71.6825 208.196 71.3322 208.249 70.9405C208.358 70.0855 208.479 69.2833 208.479 69.2833H205.887L203.684 69.3285C203.375 68.6392 202.987 67.5281 202.987 67.5281C202.987 67.5281 202.324 67.385 201.59 67.385C199.296 67.385 197.127 68.1082 195.082 69.5545C193.036 71.0008 191.402 72.9141 190.17 75.2907C188.939 77.6711 188.325 80.1908 188.325 82.8461C188.325 85.2717 188.942 87.234 190.17 88.7293C191.402 90.2246 193.048 90.9741 195.108 90.9741C196.004 90.9741 196.912 90.733 197.823 90.2509C198.739 89.7688 199.477 89.0796 200.042 88.1794L199.741 90.1229C194.618 94.0776 191.127 97.4146 189.27 100.123C187.406 102.831 186.475 105.366 186.475 107.731C186.475 109.426 187.006 110.797 188.072 111.851C189.138 112.898 190.513 113.422 192.212 113.422C195.368 113.422 197.97 111.452 200.016 107.512C202.061 103.577 203.714 98.1604 204.98 91.2792L208.17 89.1361C209.435 88.2472 211.413 86.8988 214.061 85.1098C213.367 83.7576 212.656 82.4168 211.932 81.0759L211.94 81.0684ZM195.579 105.592C194.528 107.588 193.594 108.582 192.761 108.582C192.26 108.582 191.903 108.405 191.688 108.032C191.473 107.667 191.364 107.2 191.364 106.635C191.364 105.305 191.929 103.761 193.059 101.995C194.189 100.232 196.034 98.2546 198.596 96.0625C197.631 100.42 196.626 103.595 195.579 105.592ZM200.592 80.5486C200.29 82.2774 199.793 83.6107 199.097 84.5373C198.4 85.4676 197.669 85.9308 196.904 85.9308C196.14 85.9308 195.598 85.6823 195.183 85.1851C194.769 84.6879 194.562 83.9196 194.562 82.8913C194.562 81.027 194.912 79.2643 195.613 77.6033C196.309 75.9423 197.24 74.6015 198.404 73.5883C199.567 72.5751 200.829 72.0478 202.196 72.0139L200.599 80.5449H200.596L200.592 80.5486Z" fill="white"/>
<path id="Vector_5" d="M107.456 72.3528C101.58 90.1792 83.234 86.1567 73.1965 75.1588C69.8708 71.5166 66.8087 67.5393 62.628 64.8011C55.9991 60.4584 47.7958 59.7767 40.6095 63.3171C26.5457 70.2436 25.7435 87.6331 35.6529 98.2017C36.8619 97.0115 38.3873 95.9381 39.9692 95.117C31.4948 86.5522 31.653 71.5053 45.1895 67.0723C54.146 64.1382 61.4152 69.9611 67.0648 76.1004C71.4414 80.8573 75.4601 86.1981 81.5429 88.8873C95.0681 94.8684 108.183 86.91 112.518 73.7464C113.58 70.5298 108.51 69.1513 107.456 72.349V72.3528Z" fill="white"/>
<path id="Vector_6" d="M24.1503 130.94C22.5721 131.301 21.1221 131.561 19.9055 131.636C19.6381 129.177 18.8057 127.105 17.4121 125.429C16.0148 123.749 15.1222 123.497 12.8962 123.328C15.1824 119.452 16.0788 116.872 17.1108 114.179C18.1428 111.49 18.6588 108.778 18.6588 106.047C18.6588 103.953 18.1918 102.247 17.2615 100.932C16.3312 99.618 15.1033 98.9626 13.5704 98.9626C10.7456 98.9626 8.30872 100.733 6.26355 104.273C4.21839 107.817 2.66286 112.107 1.60073 117.143C0.534834 122.183 0.00376892 126.842 0.00376892 131.132C0.00376892 135.99 0.768351 139.696 2.29752 142.258C3.82668 144.819 6.27109 146.099 9.63073 146.099C11.8567 146.099 13.8981 145.252 15.7399 143.557C17.5854 141.862 18.8434 139.636 19.5063 136.875C21.785 136.777 23.8753 136.393 25.7924 135.757C25.2877 134.137 24.7454 132.529 24.154 130.94H24.1503ZM8.08273 114.928C8.74562 111.539 9.46877 108.853 10.2522 106.872C11.0356 104.895 11.7588 103.908 12.4216 103.908C12.851 103.908 13.1938 104.19 13.4423 104.755C13.6947 105.324 13.819 106.138 13.819 107.2C13.819 109.591 13.1636 112.33 11.8491 115.403C10.5347 118.48 8.77952 122.032 6.58746 126.051C6.92268 122.028 7.41984 118.318 8.08273 114.925V114.928ZM12.5723 139.519C11.7738 140.386 10.8586 140.819 9.83035 140.819C8.86615 140.819 8.02624 140.318 7.31062 139.324C6.595 138.325 6.23719 136.883 6.23719 134.985C6.23719 132.725 6.69292 130.917 7.61193 129.572C8.52717 128.224 9.66463 127.554 11.0281 127.554H11.175C11.0431 128.352 10.9753 128.981 10.9753 129.452C10.9753 130.717 11.2503 131.911 11.8002 133.045C12.3501 134.175 13.141 135.09 14.173 135.787C14.158 135.881 18.35 136.687 18.3349 136.781C18.3123 136.902 13.7324 137.538 13.6947 137.648C13.3218 138.612 13.2729 138.781 12.5761 139.527L12.5723 139.519Z" fill="white"/>
<path id="Vector_7" d="M92.8271 137.06C91.9533 137.986 91.1774 138.698 90.507 139.146C89.4938 139.828 88.4355 140.171 87.3432 140.171C85.8818 140.171 84.8348 139.015 84.1982 136.706C83.5692 134.393 83.2529 131.196 83.2529 127.105C83.2529 122.416 83.6672 115.881 84.4996 107.501C84.6351 106.239 84.8837 104.349 84.8837 104.349L80.6427 104.123L77.2718 103.983C77.2718 103.983 77.0458 104.337 76.6692 105.079C76.3679 105.674 76.0515 106.39 75.5204 107.554C73.4602 111.942 71.5129 116.616 69.6825 121.569C67.852 126.525 66.5074 130.845 65.6411 134.536H65.5394C64.7372 127.29 64.3417 120.97 64.3417 115.584C64.3417 113.29 64.4246 110.729 64.5903 107.904L64.8502 104.043C63.2231 104.043 56.3004 103.701 56.3004 103.701C56.3004 103.701 55.7241 106.138 55.4605 107.599C53.9652 115.512 52.5754 121.866 51.2948 126.653C50.0142 131.444 48.7864 134.917 47.6037 137.079C46.4248 139.237 45.2045 140.318 43.939 140.318C42.9409 140.318 42.101 139.994 41.423 139.346C40.8694 138.823 40.4814 138.054 40.1801 137.154C38.3534 137.896 36.5606 138.638 34.651 139.064C34.7829 140.133 35.0616 141.165 35.6115 142.118C36.3422 143.384 37.3817 144.386 38.7301 145.135C40.0784 145.885 41.6114 146.261 43.3439 146.261C46.5341 146.261 49.1141 145.015 51.0726 142.517C53.0349 140.024 54.5415 136.905 55.5885 133.165C56.6394 129.425 57.807 124.231 59.1064 117.576H59.2081C59.0762 119.203 59.0084 121.12 59.0084 123.312C59.0084 127.105 59.242 130.853 59.7052 134.559C60.1723 138.269 60.8239 141.451 61.6487 144.111C62.1157 145.708 62.2325 145.5 62.2325 145.5L67.3812 145.553C67.3812 145.553 67.7993 144.789 68.1307 143.76C71.1928 134.084 74.383 124.672 77.7087 115.531H77.8104C77.042 120.785 76.6616 125.305 76.6616 129.098C76.6616 134.619 77.4187 138.83 78.9328 141.741C80.4469 144.649 82.6653 146.107 85.588 146.107C87.5165 146.107 89.313 145.632 90.974 144.687C91.5729 144.344 92.1755 143.903 92.7819 143.41C92.8271 141.293 92.8648 139.18 92.8196 137.064V137.056L92.8271 137.06Z" fill="white"/>
<path id="Vector_8" d="M119.346 131.109C119.576 131.542 119.697 132.092 119.697 132.755C119.697 134.352 119.215 135.297 118.25 135.599C116.254 136.295 114.058 136.698 111.663 136.796C111.034 139.587 109.784 141.828 107.923 143.504C106.059 145.184 103.949 146.02 101.588 146.02C99.5916 146.02 97.8892 145.538 96.473 144.574C95.0606 143.61 93.9872 142.329 93.2565 140.732C92.5258 139.135 92.1567 137.406 92.1567 135.546C92.1567 133.019 92.6388 130.762 93.603 128.785C94.5672 126.808 95.8967 125.263 97.5954 124.145C99.2903 123.03 101.17 122.476 103.23 122.476C105.757 122.476 107.799 123.35 109.343 125.094C110.891 126.838 111.795 128.992 112.058 131.553C113.621 131.452 115.482 131.124 117.648 130.555C117.915 130.487 118.149 130.454 118.345 130.454C118.778 130.454 119.113 130.672 119.343 131.101L119.346 131.109ZM104.827 139.519C105.49 138.781 105.625 138.446 105.927 137.742C105.987 137.602 109.814 136.627 109.655 136.631C108.556 136.668 106.944 136.099 106.397 135.776C105.365 135.079 104.575 134.16 104.025 133.034C103.475 131.9 103.2 130.706 103.2 129.44C103.2 128.909 103.253 128.375 103.35 127.843H103.098C101.769 127.843 100.665 128.488 99.7837 129.761C98.8986 131.041 98.4579 132.849 98.4579 135.169C98.4579 137 98.8157 138.397 99.5313 139.361C100.247 140.325 101.087 140.807 102.051 140.807C103.117 140.807 104.036 140.378 104.819 139.508H104.823L104.827 139.519Z" fill="white"/>
<path id="Vector_9" d="M131.745 144.291C132.503 141.629 133.523 139.041 134.273 136.382C133.019 137.734 131.745 138.8 130.457 139.546C128.875 140.461 127.407 140.917 126.047 140.917C122.683 140.917 121.007 138.988 121.007 135.131C121.007 133.734 121.203 132.457 121.606 131.29C122.006 130.126 122.537 129.203 123.203 128.521C123.866 127.84 124.586 127.497 125.35 127.497C125.749 127.497 126.058 127.617 126.273 127.847C126.488 128.081 126.601 128.416 126.601 128.845C126.601 129.275 126.563 129.444 126.503 129.941C126.42 130.359 126.337 130.623 126.243 130.917C126.13 131.282 125.889 131.983 125.746 132.405L129.614 133.896C129.614 133.896 130.1 133.064 130.612 131.938C131.083 130.894 131.535 129.794 131.535 128.393C131.535 126.698 131.026 125.309 130.013 124.231C129 123.147 127.58 122.608 125.749 122.608C123.919 122.608 122.107 123.158 120.412 124.254C118.717 125.354 117.335 126.909 116.269 128.939C115.829 129.779 115.501 130.691 115.245 131.644C117.595 130.518 120.401 133.704 118.213 135.836C117.162 136.86 116.043 137.802 115.023 138.853C115.426 140.597 116.19 142.107 117.395 143.331C119.207 145.177 121.746 146.099 125.004 146.099C127.034 146.099 129.135 145.576 131.312 144.525C131.463 144.45 131.602 144.363 131.749 144.284L131.745 144.291Z" fill="white"/>
<path id="Vector_10" d="M157.707 137.105C157.707 137.083 157.707 137.128 157.707 137.105L157.918 135.979C156.544 137.583 155.161 139 154.329 139.7C153.365 140.518 152.269 140.924 151.037 140.924C149.474 140.924 148.276 140.382 147.444 139.305C146.612 138.22 146.197 136.785 146.197 134.988C146.197 133.655 146.386 132.42 146.773 131.271C147.158 130.126 147.666 129.211 148.295 128.529C148.928 127.847 149.576 127.505 150.239 127.505C151.101 127.505 151.538 127.953 151.538 128.853C151.538 129.282 151.459 129.926 151.293 130.424C151.259 130.555 151.06 131.124 150.969 131.44C150.883 131.738 150.589 132.676 150.589 132.676C151.067 132.86 154.046 133.414 154.679 133.414C154.739 133.448 155.014 132.951 155.557 131.945C156.099 130.94 156.48 129.802 156.48 128.401C156.48 126.706 155.986 125.316 155.007 124.239C154.024 123.154 152.672 122.616 150.939 122.616C148.344 122.616 146.133 123.614 144.306 125.606C142.476 127.602 140.962 130.928 139.764 135.58C139.832 134.246 139.956 133.03 140.137 131.915C140.318 130.8 140.521 129.828 140.74 129C140.954 128.167 141.097 127.633 141.162 127.403C141.659 125.538 141.956 124.409 142.081 123.832L142.295 122.83C142.295 122.83 140.084 122.74 139.418 122.74C138.186 122.74 136.646 122.804 136.646 122.804C136.646 122.804 136.069 124.442 135.772 125.407C134.54 129.297 133.926 133.407 133.926 137.73C133.926 140.653 134.22 142.698 134.585 144.077C134.909 145.278 135.03 145.715 135.03 145.715L140.084 145.666C140.084 145.666 140.491 143.949 140.86 142.615C141.293 141.018 141.542 140.088 141.61 139.824C141.843 140.721 142.359 141.655 143.158 142.615C143.956 143.58 144.996 144.404 146.276 145.082C147.557 145.764 148.977 146.107 150.544 146.107C152.442 146.107 154.133 145.549 155.632 144.438C155.911 144.231 156.189 143.952 156.472 143.719C156.969 141.531 157.432 139.331 157.715 137.105L157.7 137.113L157.707 137.105Z" fill="white"/>
<path id="Vector_11" d="M159.719 121.282C160.265 121.437 160.769 121.821 161.131 122.303C162.449 122.141 163.557 121.523 164.551 120.525C164.807 118.578 165.105 116.702 165.451 114.928C166.114 111.535 166.837 108.853 167.621 106.872C168.404 104.895 169.127 103.908 169.79 103.908C170.219 103.908 170.562 104.19 170.811 104.755C171.063 105.324 171.187 106.138 171.187 107.2C171.187 109.591 170.532 112.33 169.218 115.403C168.717 116.574 168.129 117.844 167.5 119.154C168.042 119.256 168.562 119.459 168.912 119.821C169.673 120.601 169.779 121.584 169.47 122.491C171.79 119.591 173.466 116.823 174.479 114.179C175.511 111.49 176.027 108.778 176.027 106.051C176.027 103.957 175.56 102.251 174.63 100.936C173.7 99.6217 172.472 98.9663 170.939 98.9663C168.114 98.9663 165.677 100.737 163.632 104.277C161.587 107.821 160.031 112.111 158.969 117.147C158.664 118.589 158.415 119.994 158.197 121.373C158.657 121.199 159.157 121.12 159.715 121.279H159.719V121.282Z" fill="white"/>
<path id="Vector_12" d="M184.558 131.192C184.325 130.762 183.989 130.544 183.56 130.544C183.296 130.544 183.063 130.578 182.863 130.646C180.705 131.214 178.841 131.542 177.278 131.644C177.01 129.184 176.178 127.113 174.784 125.437C173.406 123.779 171.617 122.86 169.425 122.68C169.3 122.981 169.131 123.275 168.92 123.542C166.118 127.045 162.129 128.032 157.832 127.335C157.722 127.316 157.632 127.267 157.53 127.233C157.436 128.567 157.376 129.877 157.376 131.143C157.376 136.002 158.14 139.708 159.67 142.269C161.199 144.83 163.643 146.111 167.003 146.111C169.229 146.111 171.27 145.263 173.112 143.568C174.958 141.873 176.216 139.647 176.878 136.887C179.274 136.785 181.47 136.386 183.466 135.689C183.963 135.523 184.332 135.214 184.566 134.766C184.795 134.318 184.916 133.674 184.916 132.849C184.916 132.186 184.795 131.636 184.566 131.203L184.558 131.192ZM169.941 139.519C169.142 140.389 168.227 140.819 167.199 140.819C166.235 140.819 165.395 140.318 164.679 139.323C163.963 138.325 163.606 136.883 163.606 134.985C163.606 132.725 164.061 130.917 164.977 129.572C165.892 128.224 167.029 127.553 168.393 127.553H168.54C168.408 128.352 168.34 128.981 168.34 129.448C168.34 130.713 168.615 131.907 169.165 133.041C169.715 134.175 170.37 135.143 171.406 135.693C172.374 136.42 175.997 136.841 175.978 136.936C175.944 137.12 171.01 138.02 170.912 138.171C170.528 138.789 170.592 138.811 169.937 139.523L169.941 139.519Z" fill="white"/>
<path id="Vector_13" d="M201.274 137.949C200.852 137.614 200.437 137.271 200.016 136.939C198.965 137.934 197.839 138.838 196.554 139.546C194.645 140.593 192.938 141.12 191.439 141.12C189.112 141.12 187.534 140.352 186.701 138.826C190.622 137.862 193.405 136.555 195.055 134.909C196.701 133.263 197.522 131.294 197.522 129C197.522 127.038 196.938 125.482 195.778 124.337C194.614 123.188 193.066 122.616 191.134 122.616C188.976 122.616 187.033 123.2 185.323 124.36C183.609 125.523 182.272 127.098 181.308 129.075C180.924 129.862 180.641 130.683 180.408 131.52C182.144 130.981 183.94 132.567 183.827 134.246C183.827 134.31 183.805 134.371 183.797 134.431C183.763 134.638 183.73 134.838 183.635 135.045C183.541 135.248 183.387 135.44 183.221 135.636C183.161 135.704 183.142 135.779 183.074 135.847C183.059 135.862 183.04 135.877 183.025 135.896C183.025 135.896 183.025 135.896 183.018 135.904C182.607 136.284 182.182 136.631 181.816 137.052C181.812 137.056 181.805 137.06 181.801 137.064C181.266 137.58 180.747 138.115 180.246 138.668C180.683 140.491 181.504 142.039 182.758 143.271C184.686 145.169 187.398 146.114 190.89 146.114C193.451 146.114 195.854 145.482 198.095 144.22C200.339 142.954 202.076 141.576 203.307 140.081C203.322 140.066 203.326 140.035 203.341 140.02C202.569 139.429 201.88 138.728 201.27 137.96H201.266L201.274 137.949ZM185.903 134.83C185.903 132.8 186.328 131.075 187.176 129.644C188.027 128.213 189.063 127.501 190.294 127.501C190.897 127.501 191.368 127.693 191.714 128.077C192.065 128.457 192.238 128.966 192.238 129.599C192.238 130.83 191.669 131.911 190.543 132.842C189.409 133.772 187.865 134.472 185.899 134.936V134.834H185.903V134.83Z" fill="white"/>
<path id="Vector_14" d="M176.005 107.079C174.822 105.674 171.545 106.296 171.112 108.672C170.283 113.188 166.574 122.925 160.785 119.621C160.431 119.422 162.427 121.135 162.091 121.098C161.101 113.896 156.148 108.541 148.408 106.748C142.89 105.471 137.926 106.612 132.947 108.763C121.053 113.9 110.51 115.188 100.601 104.906C99.3995 106.175 98.1905 107.441 96.9814 108.71C102.846 114.763 110.322 118.473 118.906 118.491C122.555 118.499 126.164 117.444 129.55 116.096C131.678 115.249 133.493 114.42 135.595 113.554C145.263 109.569 157.948 112.917 157.73 124.239C161.203 125.828 166.344 125.395 169.391 123.068C171.944 121.117 173.44 118.318 174.539 115.358C175.5 112.702 176.005 109.222 176.005 107.075V107.079Z" fill="white"/>
<path id="Vector_15" d="M79.7162 42.6096C77.3848 43.5474 75.2078 44.3007 73.253 44.7865C71.0421 45.3364 68.8539 45.6114 66.6919 45.6114C62.3342 45.6114 59.0461 44.5229 56.8164 42.3421C54.5904 40.1651 53.4718 37.0805 53.4718 33.0881C53.4718 29.0956 54.0895 25.962 55.3174 23.1861C56.549 20.4103 58.161 18.3049 60.1572 16.8774C62.1534 15.4499 64.2513 14.7343 66.4433 14.7343C69.6674 14.7343 71.2832 16.2484 71.2832 19.2728C71.2832 19.8717 71.1815 20.6702 70.9819 21.6683C70.9593 21.8039 70.948 21.8905 70.9291 22.0148C73.0346 22.4969 75.14 23.0016 77.3132 23.0054C77.7125 21.9357 77.9158 20.64 77.9158 19.1259C77.9158 16.1015 76.9818 13.6646 75.1212 11.8191C73.2606 9.97355 70.5299 9.05078 66.9405 9.05078C63.0837 9.05078 59.5734 10.0903 56.4171 12.1694C53.2609 14.2484 50.7562 17.1825 48.9107 20.9753C47.0651 24.768 46.1424 29.107 46.1424 33.992C46.1424 37.5174 46.9258 40.6096 48.4888 43.2687C50.0519 45.9278 52.2967 47.9805 55.2194 49.4268C58.1422 50.8731 61.5847 51.5962 65.5469 51.5962C67.8407 51.5962 70.2587 51.3552 72.8011 50.8731C74.4959 50.5529 76.1381 50.0633 77.7464 49.4983C78.575 47.2648 79.204 44.956 79.7124 42.6096H79.7162Z" fill="white"/>
<path id="Vector_16" d="M101.949 49.5811C102.929 47.4418 103.072 45.0614 103.509 42.7563C103.539 42.5191 103.569 42.278 103.595 42.0407C102.507 43.2949 101.599 44.2479 100.887 44.8844C99.972 45.7017 99.1848 46.1047 98.5182 46.1047C98.085 46.1047 97.7347 45.9314 97.4711 45.5812C97.2037 45.2309 97.0718 44.7413 97.0718 44.1085C97.0718 43.1104 97.5351 40.4852 98.4692 36.2254C99.3016 32.5004 99.6179 30.2179 99.7159 29.3893C99.7761 28.8696 99.8025 28.7151 99.8138 28.3347L97.4598 28.2745L94.7329 28.2594C94.5822 28.7641 94.2433 29.8827 93.9796 30.8808C93.3469 33.3064 92.861 35.3026 92.5333 36.8657H86.1492C86.3828 35.3026 86.6728 33.9806 86.8988 32.877C87.2829 30.9788 87.5315 29.8338 87.6483 29.2839C87.765 28.734 87.8215 28.2858 87.8215 28.2858C87.8215 28.2858 85.7801 28.2104 85.1135 28.2104C83.848 28.2104 82.5034 28.2895 82.5034 28.2895C82.3715 28.6775 81.8593 29.8903 81.5128 30.8808C80.1531 34.7301 79.3961 38.9372 79.3961 43.261C79.3961 46.1876 79.4827 48.0632 79.7237 49.5886C79.8254 50.2176 79.9158 50.7487 79.9912 51.1818H85.3357C85.3357 51.1818 85.3508 50.0481 85.3583 49.1894C85.3658 48.3532 85.4487 46.9032 85.5052 44.8467V43.7996C85.5052 43.4343 85.5391 42.7865 85.6069 41.8562C86.7406 41.924 88.7631 41.9579 91.6934 41.9579C91.5277 43.2234 91.4411 44.3006 91.4411 45.2008C91.4411 47.3288 91.7951 48.9257 92.4919 49.9879C93.1887 51.0538 94.4015 51.5848 96.1302 51.5848C98.1905 51.5848 100.028 51.0199 101.641 49.8899C101.742 49.8184 101.836 49.7242 101.934 49.6527C101.946 49.6263 101.942 49.5999 101.957 49.5736V49.5849L101.949 49.5811Z" fill="white"/>
<path id="Vector_17" d="M126.638 40.2705C126.891 40.6735 127.019 41.2309 127.019 41.939C127.019 43.2912 126.698 44.3345 126.058 45.0765C124.808 46.5981 123.049 47.9954 120.766 49.2798C118.488 50.5641 116.051 51.2044 113.452 51.2044C109.908 51.2044 107.158 50.244 105.2 48.3193C103.245 46.3947 102.266 43.762 102.266 40.4174C102.266 38.086 102.755 35.9203 103.735 33.9128C104.714 31.9053 106.074 30.3083 107.81 29.1295C109.546 27.9506 111.516 27.3555 113.708 27.3555C115.663 27.3555 117.233 27.9393 118.416 29.1031C119.595 30.2669 120.186 31.845 120.186 33.8375C120.186 36.1689 119.35 38.1689 117.682 39.8374C116.013 41.5059 113.185 42.8317 109.203 43.8109C110.047 45.3665 111.648 46.1424 114.013 46.1424C115.535 46.1424 117.26 45.6113 119.2 44.5454C121.139 43.4795 121.806 42.7338 123.644 40.7375C124.382 39.8675 125.098 39.6604 125.602 39.6604C126.043 39.6604 126.39 39.86 126.642 40.2705V40.263L126.638 40.2705ZM109.674 34.5004C108.816 35.9504 108.382 37.7056 108.382 39.7658V39.8675C110.371 39.3967 111.945 38.6886 113.09 37.7395C114.235 36.7941 114.812 35.6981 114.812 34.4476C114.812 33.8036 114.635 33.2913 114.281 32.9034C113.927 32.5192 113.444 32.3196 112.838 32.3196C111.588 32.3196 110.533 33.0465 109.674 34.4966V34.5004Z" fill="white"/>
<path id="Vector_18" d="M145.03 40.8204C144.777 40.4212 144.435 40.2216 144.005 40.2216C143.47 40.2216 143.022 40.4551 142.657 40.9184C141.161 42.7149 139.892 43.2724 138.156 44.5868C136.22 46.0595 133.595 46.5529 131.632 46.5529C130.299 46.5529 129.369 46.406 128.838 46.1047C128.307 45.8072 128.039 45.2912 128.039 44.5567C128.039 43.6603 128.371 42.9409 129.037 42.4136C129.7 41.8826 130.751 41.2498 132.182 40.5154C133.512 39.8525 134.589 39.2348 135.421 38.6698C136.254 38.1048 136.969 37.3403 137.565 36.3761C138.163 35.4119 138.461 34.2179 138.461 32.7829C138.461 31.1219 137.821 29.8489 136.544 28.9675C135.263 28.0899 133.38 27.6455 130.883 27.6455C129.55 27.6455 128.243 27.8489 126.924 28.2896C125.617 28.7265 124.751 29.1182 123.998 29.5814C122.928 30.2443 122.149 30.9675 122.149 30.9675L124.288 34.3836C124.608 34.2518 125.346 33.8714 125.719 33.7019C126.066 33.5437 126.341 33.3742 126.721 33.1934C127.354 32.8695 127.889 32.636 128.386 32.4552C128.887 32.2744 129.452 32.1803 130.081 32.1803C130.777 32.1803 131.309 32.3008 131.678 32.5531C132.047 32.8017 132.228 33.1445 132.228 33.5738C132.228 34.3384 131.911 34.9938 131.282 35.5437C130.646 36.0936 129.651 36.7339 128.288 37.4608C126.955 38.1576 125.855 38.8318 124.97 39.4796C124.092 40.1274 123.343 40.9598 122.725 41.973C122.676 42.0558 122.661 42.1537 122.616 42.2366C124.457 40.9937 127.584 42.3345 126.646 44.9108C125.945 46.8392 125.181 48.7525 124.36 50.6319C125.945 51.5811 128.141 52.0707 130.981 52.0707C133.821 52.0707 136.318 51.5133 138.612 50.4022C140.905 49.2873 141.919 48.4813 143.516 46.3495C144.144 45.5172 145.395 43.6791 145.395 42.4475C145.395 41.7507 145.267 41.2008 145.022 40.8016L145.03 40.8204Z" fill="white"/>
<path id="Vector_19" d="M182.487 41.8074C171.138 49.619 157.466 46.2932 150.144 34.9036L145.99 35.0542C143.817 38.8658 141.29 41.9618 137.904 44.8017C135.312 46.9749 138.401 51.069 141.263 48.8393C144.126 46.6058 146.314 44.071 148.299 41.2198C157.519 52.376 172.739 54.342 185.101 46.3083C184.234 44.8055 183.357 43.3064 182.483 41.8074H182.487Z" fill="white"/>
<path id="Vector_20" d="M96.876 70.0402C97.2187 70.029 97.4861 69.7427 97.4748 69.4037C97.4635 69.061 97.1773 68.7936 96.8383 68.8049L94.3713 68.8915C93.9721 68.8915 93.5766 68.7898 93.2225 68.609L91.6294 67.69C91.4599 67.6335 91.3657 67.449 91.4222 67.2795C91.4561 67.1815 91.5314 67.1062 91.6294 67.0723L93.2225 66.1495C93.5804 65.9688 93.9721 65.8671 94.3713 65.8671L96.8383 65.9537C97.181 65.965 97.4673 65.6976 97.4748 65.3548C97.4861 65.0121 97.2187 64.7296 96.876 64.7183H96.3826C96.0436 64.7183 96.0097 64.5601 96.2997 64.3831L97.4635 63.7127C97.7498 63.5469 97.8477 63.1816 97.6895 62.8878C97.52 62.6053 97.1585 62.5074 96.8647 62.6618L95.7008 63.336C95.4071 63.5018 95.2903 63.4001 95.4598 63.0987L95.6896 62.6656C95.8402 62.3681 95.7272 62.0027 95.4334 61.8408C95.1359 61.6901 94.7705 61.8031 94.6086 62.0969L93.4523 64.2739C93.2527 64.6204 92.9702 64.9104 92.6275 65.1288L91.0004 66.0027C90.7028 66.1684 90.4655 66.0365 90.4655 65.6938V63.8558C90.4844 63.4566 90.5974 63.0648 90.797 62.7183L92.1039 60.6242C92.2998 60.3455 92.232 59.9613 91.9533 59.7617C91.6708 59.5658 91.2904 59.6336 91.0908 59.9124C91.0757 59.9312 91.0644 59.9538 91.0531 59.9764L90.7932 60.3869C90.6124 60.6769 90.4618 60.628 90.4618 60.2928V58.9482C90.4618 58.6054 90.1868 58.3342 89.8478 58.3342C89.5089 58.3342 89.2301 58.6092 89.2301 58.9482V60.2928C89.2301 60.6317 89.0833 60.6732 88.8987 60.3869L88.6388 59.9764C88.458 59.6864 88.0776 59.5997 87.7876 59.7805C87.4976 59.9613 87.4072 60.3417 87.5918 60.6317L88.8987 62.7259C89.0946 63.0761 89.2113 63.4641 89.2301 63.8633V65.6938C89.2301 66.0365 88.9929 66.1721 88.6953 66.0027L87.1021 65.0874C86.7631 64.8727 86.4844 64.5789 86.2773 64.2324L85.121 62.0366C84.9628 61.7428 84.5975 61.6298 84.2961 61.7805C84.0024 61.9387 83.8894 62.304 84.04 62.6053L84.2698 63.0385C84.428 63.3398 84.3187 63.449 84.0287 63.2758L82.8536 62.6317C82.5636 62.4773 82.202 62.5752 82.0288 62.8577C81.8706 63.1477 81.9685 63.5093 82.2547 63.6825L83.4186 64.353C83.7123 64.5262 83.6747 64.6731 83.3357 64.6882H82.8423C82.4996 64.6995 82.2321 64.9857 82.2434 65.3247C82.2547 65.6674 82.541 65.9349 82.88 65.9236L85.347 65.8369C85.7462 65.8369 86.1417 65.9386 86.4957 66.1194L88.0889 67.0384C88.2584 67.0949 88.3526 67.2795 88.2961 67.449C88.2622 67.5469 88.1869 67.6222 88.0889 67.6561L86.4807 68.6165C86.1229 68.7973 85.7311 68.899 85.3319 68.899L82.8649 68.8124C82.5222 68.8011 82.2359 69.0685 82.2246 69.4113C82.2133 69.754 82.4807 70.0402 82.8235 70.0478H83.3169C83.6559 70.0478 83.6897 70.206 83.3997 70.383L82.2359 71.0835C81.9572 71.2568 81.8668 71.6221 82.0325 71.9084C82.202 72.2022 82.5824 72.3001 82.8762 72.1344L84.04 71.4602C84.3338 71.2945 84.4506 71.3962 84.2811 71.6975L84.0513 72.1306C83.9007 72.4282 84.0137 72.7935 84.3074 72.9555C84.605 73.1061 84.9703 72.9931 85.1323 72.6993L86.2886 70.5224C86.4882 70.1758 86.7707 69.8858 87.1134 69.6674L88.7066 68.7521C89.0042 68.5864 89.2414 68.7182 89.2414 69.061V70.899C89.2226 71.2982 89.1096 71.6899 88.91 72.0364L87.6031 74.1306C87.4411 74.4319 87.5503 74.8048 87.8516 74.9667C88.1228 75.1136 88.4656 75.0383 88.6464 74.7897L88.9062 74.3792C89.087 74.0891 89.2377 74.1381 89.2377 74.4733V75.8179C89.2377 76.1607 89.5126 76.4319 89.8516 76.4319C90.1906 76.4319 90.4693 76.1569 90.4693 75.8179V74.4733C90.4693 74.1343 90.6162 74.0929 90.8007 74.3792L91.0606 74.7897C91.2414 75.0797 91.6218 75.1663 91.9118 74.9855C92.2018 74.8048 92.2922 74.4244 92.1077 74.1343L90.8007 72.0477C90.6049 71.6975 90.4881 71.3095 90.4693 70.9103V69.0723C90.4693 68.7295 90.7066 68.5939 91.0041 68.7634L92.5973 69.6787C92.9363 69.8934 93.215 70.1871 93.4222 70.5336L94.5785 72.7295C94.7366 73.0233 95.102 73.1362 95.4033 72.9856C95.6971 72.8274 95.8101 72.4621 95.6594 72.1607L95.4297 71.7276C95.2715 71.4263 95.3807 71.3171 95.6707 71.4903L96.8458 72.1344C97.1359 72.2888 97.4974 72.1909 97.6707 71.9084C97.8289 71.6184 97.7309 71.2568 97.4447 71.0835L96.2809 70.4131C95.9871 70.2399 96.0248 70.093 96.3637 70.0779L96.8797 70.0402H96.876Z" fill="white"/>
<path id="Vector_21" d="M57.4454 85.2979C57.7881 85.2866 58.0555 85.0004 58.0442 84.6614C58.0329 84.3187 57.7467 84.0512 57.4077 84.0625L54.9407 84.1492C54.5415 84.1492 54.146 84.0475 53.7919 83.8667L52.1988 82.9477C52.0293 82.8912 51.9351 82.7066 51.9916 82.5371C52.0255 82.4392 52.1008 82.3639 52.1988 82.33L53.7919 81.4072C54.1498 81.2264 54.5415 81.1247 54.9407 81.1247L57.4077 81.2114C57.7505 81.2227 58.0367 80.9552 58.0442 80.6125C58.0555 80.2698 57.7881 79.9835 57.4454 79.976H56.952C56.613 79.976 56.5791 79.8178 56.8691 79.6408L58.0329 78.9703C58.3192 78.8046 58.4209 78.4393 58.2589 78.1455C58.0894 77.863 57.7279 77.7613 57.4341 77.9195L56.2702 78.5937C55.9765 78.7594 55.8597 78.6577 56.0292 78.3564L56.2589 77.9233C56.4096 77.6257 56.2966 77.2604 56.0028 77.0984C55.7053 76.9478 55.3399 77.0608 55.178 77.3546L54.0217 79.5315C53.8221 79.8781 53.5396 80.1718 53.1969 80.3865L51.5698 81.2603C51.2722 81.426 51.0349 81.2942 51.0349 80.9515V79.1135C51.0538 78.7142 51.163 78.3225 51.3664 77.976L52.6733 75.8819C52.8692 75.6032 52.8051 75.219 52.5227 75.0194C52.2402 74.8235 51.8598 74.8913 51.6602 75.17C51.6451 75.1889 51.6338 75.2115 51.6225 75.2341L51.3626 75.6446C51.1818 75.9346 51.0312 75.8856 51.0312 75.5504V74.2058C51.0312 73.8631 50.7562 73.5881 50.4135 73.5881C50.0707 73.5881 49.7958 73.8631 49.7958 74.2058V75.5504C49.7958 75.8894 49.6489 75.9308 49.4643 75.6446L49.2045 75.2341C49.0237 74.944 48.6433 74.8536 48.3532 75.0382C48.0632 75.219 47.9766 75.5994 48.1574 75.8894L49.4643 77.9835C49.6602 78.3338 49.7769 78.7218 49.7958 79.121V80.9515C49.7958 81.2942 49.5585 81.4298 49.2609 81.2603L47.6678 80.3451C47.3288 80.1304 47.0463 79.8366 46.8429 79.4901L45.6866 77.2943C45.5284 77.0005 45.1631 76.8875 44.8618 77.0382C44.568 77.1964 44.455 77.5617 44.6057 77.863L44.8354 78.2962C44.9936 78.5975 44.8844 78.7067 44.5944 78.5334L43.4192 77.8894C43.1292 77.735 42.7676 77.8329 42.5944 78.1154C42.4362 78.4054 42.5341 78.767 42.8204 78.9402L43.9842 79.6106C44.278 79.7839 44.2403 79.9308 43.9013 79.9458H43.4079C43.0652 79.9571 42.7978 80.2434 42.8091 80.5824C42.8204 80.9251 43.1066 81.1925 43.4494 81.1812L45.9164 81.0946C46.3156 81.0946 46.7111 81.1963 47.0689 81.3771L48.6621 82.2961C48.8316 82.3526 48.9257 82.5371 48.8692 82.7066C48.8353 82.8046 48.76 82.8799 48.6621 82.9138L47.0501 83.8742C46.6923 84.055 46.3005 84.1567 45.9013 84.1567L43.4343 84.0701C43.0916 84.0588 42.8091 84.3262 42.7978 84.6689C42.7865 85.0117 43.0539 85.2979 43.3966 85.3092H43.89C44.229 85.3092 44.2629 85.4674 43.9729 85.6444L42.8091 86.345C42.5304 86.5182 42.44 86.8836 42.6057 87.1698C42.7752 87.4636 43.1556 87.5615 43.4494 87.3958L44.6132 86.7216C44.907 86.5559 45.0237 86.6576 44.8542 86.9589L44.6245 87.3921C44.4738 87.6896 44.5868 88.0549 44.8806 88.2169C45.1782 88.3676 45.5435 88.2546 45.7055 87.9608L46.8617 85.7838C47.0614 85.4373 47.3438 85.1473 47.6866 84.9288L49.2798 84.0136C49.5773 83.8479 49.8146 83.9797 49.8146 84.3224V86.1604C49.7958 86.5597 49.6866 86.9514 49.4832 87.3017L48.1762 89.3958C48.0143 89.6971 48.1235 90.07 48.4248 90.2319C48.696 90.3788 49.035 90.3035 49.2195 90.0549L49.4794 89.6444C49.6602 89.3544 49.8108 89.4033 49.8108 89.7385V91.0831C49.8108 91.4259 50.0858 91.7008 50.4248 91.7008C50.7638 91.7008 51.0425 91.4259 51.0425 91.0831V89.7385C51.0425 89.3995 51.1931 89.3544 51.3739 89.6444L51.6338 90.0549C51.8146 90.3449 52.195 90.4353 52.485 90.2508C52.775 90.0662 52.8654 89.6896 52.6809 89.3996L51.3739 87.313C51.1781 86.9627 51.0613 86.5747 51.0425 86.1755V84.3375C51.0425 83.9947 51.2797 83.8592 51.5773 84.0286L53.1705 84.9439C53.5095 85.1586 53.7919 85.4523 53.9953 85.7989L55.1516 87.9947C55.3098 88.2885 55.6752 88.4015 55.9765 88.2508C56.2702 88.0926 56.3832 87.7273 56.2326 87.4259L56.0028 86.9928C55.8446 86.6915 55.9539 86.5823 56.2439 86.7555L57.419 87.3996C57.709 87.554 58.0706 87.4561 58.2439 87.1736C58.402 86.8836 58.3041 86.522 58.0179 86.3488L56.854 85.6783C56.5603 85.5051 56.5979 85.3582 56.9369 85.3431L57.4529 85.3055L57.4454 85.2979Z" fill="white"/>
<path id="Vector_22" d="M119.606 11.706C119.949 11.6947 120.216 11.4085 120.205 11.0695C120.194 10.7268 119.908 10.4593 119.565 10.4706L117.098 10.5573C116.699 10.5573 116.303 10.4556 115.949 10.2748L114.356 9.35578C114.186 9.29928 114.092 9.11473 114.149 8.94524C114.183 8.84731 114.258 8.77198 114.356 8.73809L115.949 7.81531C116.307 7.63453 116.699 7.53283 117.098 7.53283L119.565 7.61946C119.908 7.63076 120.194 7.36334 120.205 7.0206C120.216 6.67786 119.949 6.39161 119.606 6.38408H119.113C118.774 6.38408 118.74 6.22589 119.03 6.04886L120.194 5.37844C120.48 5.21272 120.578 4.84738 120.42 4.5536C120.25 4.27112 119.889 4.17319 119.595 4.32761L118.431 5.0018C118.137 5.16752 118.021 5.06583 118.19 4.76452L118.42 4.33138C118.571 4.03383 118.458 3.66849 118.164 3.50653C117.866 3.35588 117.501 3.46887 117.339 3.76265L116.183 5.93964C115.983 6.28615 115.701 6.57616 115.358 6.79462L113.731 7.66842C113.433 7.83415 113.196 7.70232 113.196 7.35958V5.52157C113.215 5.12233 113.328 4.73062 113.527 4.38411L114.834 2.28998C115.03 2.01127 114.966 1.62709 114.684 1.42747C114.401 1.23162 114.021 1.29941 113.821 1.57813C113.806 1.59696 113.795 1.61956 113.783 1.64216L113.524 2.0527C113.343 2.34271 113.192 2.29375 113.192 1.95854V0.617692C113.192 0.274948 112.917 0 112.574 0C112.232 0 111.957 0.274948 111.957 0.617692V1.9623C111.957 2.30128 111.81 2.34271 111.625 2.05646L111.365 1.64592C111.185 1.35591 110.804 1.26928 110.514 1.45007C110.224 1.63086 110.134 2.01127 110.318 2.30128L111.625 4.39541C111.821 4.74568 111.938 5.13363 111.957 5.53287V7.36334C111.957 7.70609 111.719 7.84168 111.422 7.67219L109.829 6.75695C109.49 6.54227 109.211 6.24848 109.004 5.90197L107.848 3.70615C107.689 3.41237 107.324 3.29938 107.023 3.45004C106.729 3.60823 106.616 3.97357 106.767 4.27488L106.996 4.70802C107.155 5.00933 107.045 5.11856 106.755 4.9453L105.58 4.30125C105.29 4.14682 104.929 4.24475 104.755 4.52723C104.597 4.81725 104.695 5.17882 104.981 5.35208L106.145 6.0225C106.439 6.19575 106.401 6.34264 106.062 6.35771H105.569C105.226 6.36901 104.959 6.65526 104.97 6.99424C104.981 7.33698 105.268 7.60439 105.607 7.5931L108.074 7.50647C108.473 7.50647 108.868 7.60816 109.222 7.78895L110.815 8.70795C110.985 8.76445 111.079 8.94901 111.023 9.11849C110.989 9.21642 110.913 9.29175 110.815 9.32565L109.203 10.2861C108.846 10.4669 108.454 10.5686 108.055 10.5686L105.588 10.4819C105.245 10.4706 104.959 10.7381 104.951 11.0808C104.94 11.4235 105.207 11.7098 105.55 11.7173H106.043C106.382 11.7173 106.416 11.8755 106.126 12.0525L104.962 12.7531C104.684 12.9263 104.593 13.2917 104.759 13.5779C104.929 13.8717 105.309 13.9696 105.603 13.8039L106.767 13.1297C107.06 12.964 107.177 13.0657 107.008 13.367L106.778 13.8001C106.627 14.0977 106.74 14.463 107.034 14.625C107.332 14.7757 107.697 14.6627 107.859 14.3689L109.015 12.1919C109.215 11.8454 109.497 11.5554 109.84 11.3369L111.433 10.4217C111.731 10.256 111.968 10.3878 111.968 10.7305V12.5685C111.949 12.9678 111.84 13.3595 111.637 13.706L110.33 15.8001C110.168 16.1014 110.277 16.4743 110.578 16.6363C110.849 16.7831 111.192 16.7078 111.373 16.4592L111.633 16.0487C111.814 15.7587 111.964 15.8076 111.964 16.1429V17.4875C111.964 17.8302 112.239 18.1052 112.578 18.1052C112.917 18.1052 113.196 17.8302 113.196 17.4875V16.1429C113.196 15.8039 113.343 15.7625 113.527 16.0487L113.787 16.4592C113.968 16.7493 114.348 16.8359 114.638 16.6551C114.928 16.4743 115.019 16.0939 114.834 15.8039L113.527 13.7173C113.331 13.367 113.215 12.9791 113.196 12.5798V10.7418C113.196 10.3991 113.433 10.2635 113.731 10.433L115.324 11.3482C115.663 11.5629 115.945 11.8567 116.149 12.2032L117.305 14.399C117.463 14.6928 117.829 14.8058 118.13 14.6551C118.424 14.4969 118.537 14.1316 118.386 13.8303L118.156 13.3971C117.998 13.0958 118.107 12.9866 118.397 13.1599L119.572 13.8039C119.862 13.9583 120.224 13.8604 120.397 13.5779C120.555 13.2879 120.458 12.9263 120.171 12.7531L119.007 12.0827C118.714 11.9094 118.751 11.7625 119.09 11.7475L119.606 11.7098H119.603L119.606 11.706Z" fill="white"/>
<path id="Vector_23" d="M40.8844 52.6431C41.2272 52.6318 41.4946 52.3456 41.4833 52.0066C41.472 51.6639 41.1858 51.3965 40.8468 51.4078L38.3798 51.4944C37.9805 51.4944 37.5851 51.3927 37.231 51.2119L35.6378 50.2929C35.4683 50.2364 35.3742 50.0518 35.4307 49.8824C35.4646 49.7844 35.5399 49.7091 35.6378 49.6752L37.231 48.7524C37.5888 48.5716 37.9805 48.47 38.3798 48.47L40.8468 48.5566C41.1895 48.5679 41.4758 48.3005 41.4833 47.9577C41.4946 47.615 41.2272 47.3325 40.8844 47.3212H40.391C40.0521 47.3212 40.0182 47.163 40.3082 46.986L41.472 46.3156C41.7583 46.1498 41.8562 45.7845 41.698 45.4907C41.5285 45.2082 41.1669 45.1103 40.8731 45.2647L39.7093 45.9389C39.4155 46.1046 39.2988 46.0029 39.4683 45.7016L39.698 45.2685C39.8487 44.9709 39.7357 44.6056 39.4419 44.4436C39.1444 44.293 38.779 44.406 38.6171 44.6998L37.4608 46.8768C37.2612 47.2233 36.9787 47.5133 36.6359 47.7317L35.0088 48.6055C34.7113 48.7713 34.474 48.6394 34.474 48.2967V46.4587C34.4928 46.0594 34.6058 45.6677 34.8055 45.3212L36.1124 43.2271C36.3082 42.9484 36.2405 42.5642 35.9617 42.3646C35.6793 42.1687 35.2989 42.2328 35.0992 42.5152C35.0842 42.5341 35.0729 42.5567 35.0616 42.5793L34.8017 42.9898C34.6209 43.2798 34.4702 43.2309 34.4702 42.8957V41.551C34.4702 41.2083 34.1953 40.9333 33.8525 40.9333C33.5098 40.9333 33.2349 41.2083 33.2349 41.551V42.8957C33.2349 43.2346 33.088 43.2761 32.9034 42.9898L32.6435 42.5793C32.4627 42.2893 32.0823 42.1989 31.7923 42.3834C31.5023 42.5642 31.4157 42.9446 31.5965 43.2346L32.9034 45.3288C33.0993 45.679 33.216 46.067 33.2349 46.47V48.3005C33.2349 48.6432 32.9976 48.7788 32.7 48.6093L31.1068 47.6941C30.7679 47.4794 30.4854 47.1856 30.282 46.8391L29.1257 44.6433C28.9675 44.3495 28.6022 44.2365 28.3008 44.3872C28.0071 44.5453 27.8941 44.9107 28.0447 45.212L28.2745 45.6451C28.4327 45.9465 28.3234 46.0557 28.0334 45.8824L26.8583 45.2384C26.5683 45.0839 26.2067 45.1819 26.0335 45.4643C25.8753 45.7544 25.9732 46.1159 26.2595 46.2892L27.4233 46.9596C27.7171 47.1329 27.6794 47.2798 27.3404 47.2948H26.847C26.5043 47.3061 26.2369 47.5924 26.2482 47.9314C26.2595 48.2741 26.5457 48.5415 26.8847 48.5302L29.3517 48.4436C29.7509 48.4436 30.1464 48.5453 30.5004 48.7261L32.0936 49.6451C32.2631 49.7016 32.3573 49.8861 32.3008 50.0556C32.2669 50.1535 32.1916 50.2289 32.0936 50.2628L30.4816 51.2232C30.1276 51.404 29.7321 51.5057 29.3328 51.5057L26.8658 51.4191C26.5231 51.4078 26.2369 51.6752 26.2293 52.0179C26.218 52.3607 26.4854 52.6431 26.8282 52.6544H27.3216C27.6606 52.6544 27.6982 52.8126 27.4044 52.9896L26.2406 53.6902C25.9619 53.8635 25.8753 54.2288 26.0372 54.515C26.2067 54.8088 26.5871 54.9068 26.8809 54.741L28.0447 54.0668C28.3385 53.9011 28.4553 54.0028 28.2858 54.3041L28.056 54.7373C27.9054 55.0348 28.0184 55.4002 28.3121 55.5621C28.6097 55.7128 28.975 55.5998 29.137 55.306L30.2933 53.129C30.4929 52.7825 30.7754 52.4925 31.1181 52.274L32.7113 51.3588C33.0089 51.1931 33.2462 51.3249 33.2462 51.6676V53.5056C33.2273 53.9049 33.1143 54.2966 32.9147 54.6469L31.6078 56.741C31.4458 57.0423 31.555 57.4152 31.8563 57.5771C32.1275 57.724 32.4703 57.6487 32.6511 57.4001L32.9109 56.9896C33.0917 56.6996 33.2424 56.7485 33.2424 57.0837V58.4284C33.2424 58.7711 33.5173 59.046 33.8563 59.046C34.1953 59.046 34.474 58.7711 34.474 58.4284V57.0837C34.474 56.7448 34.6209 56.7033 34.8055 56.9896L35.0653 57.4001C35.2461 57.6901 35.6265 57.7768 35.9165 57.596C36.2066 57.4152 36.297 57.0348 36.1124 56.7448L34.8055 54.6582C34.6096 54.3079 34.4928 53.92 34.474 53.5207V51.6827C34.474 51.34 34.7113 51.2044 35.0088 51.3739L36.602 52.2891C36.941 52.5038 37.2235 52.7976 37.4269 53.1441L38.5832 55.3399C38.7414 55.6337 39.1067 55.7467 39.408 55.596C39.7018 55.4378 39.8148 55.0725 39.6641 54.7712L39.4344 54.338C39.2762 54.0367 39.3854 53.9275 39.6754 54.1007L40.8505 54.7448C41.1406 54.8992 41.5021 54.8013 41.6754 54.5188C41.8336 54.2288 41.7357 53.8672 41.4494 53.694L40.2856 53.0235C39.9918 52.8503 40.0295 52.7034 40.3684 52.6883L40.8844 52.6507H40.8807L40.8844 52.6431Z" fill="white"/>
<path id="Vector_24" d="M219.311 121.06C219.654 121.049 219.921 120.763 219.91 120.424C219.898 120.081 219.612 119.813 219.273 119.825L216.806 119.911C216.407 119.911 216.012 119.81 215.657 119.629L214.064 118.71C213.895 118.653 213.801 118.469 213.857 118.299C213.891 118.201 213.966 118.126 214.064 118.092L215.657 117.169C216.015 116.989 216.407 116.887 216.806 116.887L219.273 116.974C219.616 116.985 219.898 116.717 219.91 116.375C219.921 116.032 219.654 115.746 219.311 115.738H218.817C218.478 115.738 218.445 115.58 218.735 115.403L219.898 114.733C220.185 114.567 220.283 114.201 220.124 113.908C219.955 113.625 219.593 113.524 219.3 113.682L218.136 114.356C217.842 114.522 217.725 114.42 217.895 114.119L218.124 113.685C218.275 113.388 218.162 113.023 217.868 112.861C217.571 112.71 217.205 112.823 217.043 113.117L215.887 115.294C215.688 115.64 215.405 115.934 215.062 116.149L213.435 117.023C213.138 117.188 212.9 117.056 212.9 116.714V114.876C212.919 114.476 213.029 114.085 213.232 113.738L214.539 111.644C214.735 111.365 214.671 110.981 214.388 110.782C214.106 110.586 213.725 110.65 213.526 110.932C213.511 110.951 213.499 110.974 213.488 110.996L213.228 111.407C213.047 111.697 212.897 111.648 212.897 111.313V109.968C212.897 109.625 212.622 109.35 212.279 109.35C211.936 109.35 211.661 109.625 211.661 109.968V111.313C211.661 111.652 211.514 111.697 211.33 111.407L211.07 110.996C210.889 110.706 210.509 110.616 210.219 110.8C209.929 110.981 209.842 111.362 210.023 111.652L211.33 113.746C211.526 114.096 211.642 114.484 211.661 114.887V116.717C211.661 117.06 211.424 117.196 211.126 117.026L209.533 116.111C209.194 115.896 208.916 115.603 208.708 115.256L207.552 113.06C207.394 112.766 207.029 112.653 206.727 112.804C206.434 112.962 206.321 113.328 206.471 113.629L206.701 114.062C206.859 114.363 206.75 114.473 206.46 114.299L205.285 113.655C204.995 113.501 204.633 113.599 204.46 113.881C204.302 114.171 204.4 114.533 204.686 114.706L205.85 115.377C206.143 115.55 206.106 115.697 205.767 115.712H205.273C204.931 115.723 204.663 116.009 204.675 116.348C204.686 116.691 204.972 116.959 205.311 116.947L207.778 116.861C208.177 116.861 208.573 116.962 208.927 117.143L210.52 118.062C210.69 118.119 210.784 118.303 210.727 118.473C210.693 118.571 210.618 118.646 210.52 118.68L208.912 119.64C208.554 119.821 208.162 119.923 207.759 119.923L205.292 119.836C204.95 119.825 204.663 120.092 204.652 120.435C204.641 120.778 204.908 121.064 205.251 121.071H205.744C206.083 121.071 206.121 121.23 205.827 121.407L204.663 122.107C204.385 122.28 204.294 122.646 204.46 122.932C204.629 123.226 205.01 123.324 205.304 123.158L206.467 122.484C206.761 122.318 206.878 122.42 206.708 122.721L206.479 123.154C206.328 123.452 206.441 123.817 206.735 123.979C207.032 124.13 207.398 124.017 207.56 123.723L208.716 121.546C208.916 121.199 209.198 120.909 209.541 120.691L211.134 119.776C211.432 119.61 211.669 119.742 211.669 120.085V121.923C211.65 122.322 211.537 122.714 211.337 123.064L210.03 125.158C209.868 125.459 209.978 125.832 210.279 125.994C210.55 126.141 210.893 126.066 211.074 125.817L211.334 125.407C211.514 125.117 211.665 125.166 211.665 125.501V126.845C211.665 127.188 211.94 127.463 212.283 127.463C212.625 127.463 212.9 127.188 212.9 126.845V125.501C212.9 125.162 213.047 125.117 213.232 125.407L213.492 125.817C213.673 126.107 214.053 126.198 214.343 126.013C214.633 125.832 214.723 125.452 214.539 125.162L213.232 123.075C213.036 122.725 212.919 122.337 212.9 121.938V120.1C212.9 119.757 213.138 119.621 213.435 119.791L215.028 120.706C215.367 120.921 215.646 121.215 215.853 121.561L217.01 123.757C217.168 124.051 217.533 124.164 217.834 124.013C218.128 123.855 218.241 123.489 218.091 123.188L217.861 122.755C217.703 122.454 217.812 122.344 218.102 122.518L219.277 123.162C219.567 123.316 219.929 123.218 220.102 122.936C220.26 122.646 220.162 122.284 219.876 122.111L218.712 121.441C218.418 121.267 218.456 121.12 218.795 121.105L219.311 121.068V121.06Z" fill="white"/>
<path id="Vector_25" d="M134.793 14.7003C136.243 14.7003 137.421 13.5252 137.421 12.0713C137.421 10.6175 136.246 9.44238 134.793 9.44238C133.339 9.44238 132.164 10.6175 132.164 12.0713C132.164 13.5252 133.339 14.7003 134.793 14.7003Z" fill="white"/>
<path id="Vector_26" d="M153.734 101.595C155.184 101.595 156.363 100.42 156.363 98.9664C156.363 97.5125 155.188 96.3374 153.734 96.3374C152.28 96.3374 151.105 97.5125 151.105 98.9664C151.105 100.42 152.28 101.595 153.734 101.595Z" fill="white"/>
<path id="Vector_27" d="M89.8629 14.7003C91.313 14.7003 92.4919 13.5252 92.4919 12.0713C92.4919 10.6175 91.3168 9.44238 89.8629 9.44238C88.4091 9.44238 87.2377 10.6175 87.2377 12.0713C87.2377 13.5252 88.4129 14.7003 89.8629 14.7003Z" fill="white"/>
<path id="Vector_28" d="M161.014 26.5646C162.464 26.5646 163.643 25.3895 163.643 23.9394C163.643 22.4893 162.468 21.3142 161.014 21.3142C159.56 21.3142 158.385 22.4893 158.385 23.9394C158.385 25.3895 159.56 26.5646 161.014 26.5646Z" fill="white"/>
<path id="Vector_29" d="M116.273 103.633C117.723 103.633 118.902 102.458 118.902 101.004C118.902 99.5503 117.727 98.3789 116.273 98.3789C114.819 98.3789 113.644 99.554 113.644 101.004C113.644 102.454 114.819 103.633 116.273 103.633Z" fill="white"/>
<path id="Vector_30" d="M92.4015 118.401C93.8515 118.401 95.0267 117.226 95.0267 115.772C95.0267 114.318 93.8515 113.143 92.4015 113.143C90.9514 113.143 89.7725 114.318 89.7725 115.772C89.7725 117.226 90.9476 118.401 92.4015 118.401Z" fill="white"/>
<path id="Vector_31" d="M42.1953 125.29C43.6453 125.29 44.8242 124.115 44.8242 122.661C44.8242 121.207 43.6491 120.032 42.1953 120.032C40.7414 120.032 39.5663 121.207 39.5663 122.661C39.5663 124.115 40.7414 125.29 42.1953 125.29Z" fill="white"/>
<path id="Vector_32" d="M19.2238 88.5636C20.6738 88.5636 21.8527 87.3885 21.8527 85.9346C21.8527 84.4808 20.6776 83.3057 19.2238 83.3057C17.7699 83.3057 16.5948 84.4808 16.5948 85.9346C16.5948 87.3885 17.7699 88.5636 19.2238 88.5636Z" fill="white"/>
<path id="Vector_33" d="M148.871 58.3455C150.321 58.3455 151.497 57.1703 151.497 55.7165C151.497 54.2627 150.321 53.0913 148.871 53.0913C147.421 53.0913 146.242 54.2664 146.242 55.7165C146.242 57.1666 147.418 58.3455 148.871 58.3455Z" fill="white"/>
<path id="Vector_34" d="M137.836 71.012C139.286 71.012 140.465 69.8368 140.465 68.3868C140.465 66.9367 139.29 65.7578 137.836 65.7578C136.382 65.7578 135.207 66.9329 135.207 68.3868C135.207 69.8406 136.382 71.012 137.836 71.012Z" fill="white"/>
<path id="Vector_35" d="M30.2217 116.047C31.6718 116.047 32.8469 114.872 32.8469 113.422C32.8469 111.972 31.6718 110.793 30.2217 110.793C28.7717 110.793 27.5928 111.968 27.5928 113.422C27.5928 114.876 28.7679 116.047 30.2217 116.047Z" fill="white"/>
<path id="Vector_36" d="M212.302 145.29C213.752 145.29 214.931 144.114 214.931 142.664C214.931 141.214 213.755 140.035 212.302 140.035C210.848 140.035 209.676 141.211 209.676 142.664C209.676 144.118 210.851 145.29 212.302 145.29Z" fill="white"/>
</g>
<defs>
<clipPath id="clip0_157_3396">
<rect width="220.204" height="146.261" fill="white"/>
</clipPath>
</defs>
</svg>
