<svg width="159" height="106" viewBox="0 0 159 106" fill="none" xmlns="http://www.w3.org/2000/svg">
<g id="_&#195;&#144;&#194;&#161;&#195;&#144;&#194;&#187;&#195;&#144;&#194;&#190;&#195;&#144;&#194;&#185;_1" clip-path="url(#clip0_119_2969)">
<path id="Vector" d="M95.5725 61.8586C95.2018 61.2931 94.8636 60.8466 94.4928 60.2783C94.4117 60.1728 94.2926 59.9563 94.2168 59.8427C94.0869 59.6532 93.976 59.4503 93.8569 59.2555C93.0208 60.2296 92.32 60.9683 91.7788 61.45C91.1239 62.0372 90.5557 62.3267 90.0794 62.3267C89.771 62.3267 89.5166 62.2023 89.3272 61.9506C89.1351 61.6989 89.0403 61.3472 89.0403 60.8926C89.0403 60.1755 89.3759 58.2894 90.0443 55.2317C90.6423 52.5555 90.9318 50.8887 91.0238 50.2988C91.0698 49.9984 91.0779 49.9578 91.1023 49.7468L89.1892 49.652L87.3085 49.5979C87.3085 49.5979 87.0163 50.6776 86.8269 51.3947C86.2505 53.5216 85.6606 55.3129 85.0545 56.7687C84.4429 58.2272 83.872 59.315 83.3362 60.0294C82.7977 60.7465 82.3485 61.1036 81.9913 61.1036C81.7262 61.1036 81.5394 61.0008 81.4177 60.8006C81.2986 60.5976 81.2391 60.2458 81.2391 59.7452C81.2391 58.9091 81.4772 57.2368 81.9562 54.7284C82.0996 54.0113 82.289 53.2104 82.5298 52.3255C82.795 51.2269 82.933 50.5531 82.9736 50.3691C83.0548 49.9822 83.1143 49.5952 83.1143 49.5952L81.1092 49.5167L79.2231 49.4653C79.0202 49.809 78.7198 50.6749 78.479 51.392C78.2625 52.0468 78.0921 52.68 77.9243 53.3051C79.0662 53.2212 80.384 54.1737 80.0891 55.6593C79.5479 58.3869 78.4898 60.9115 77.2965 63.3902C77.4616 63.8908 77.6726 64.3589 77.9568 64.7729C78.6387 65.766 79.5154 66.2612 80.5897 66.2612C81.5232 66.2612 82.3945 65.8255 83.2063 64.9515C84.0154 64.0802 84.6269 62.8327 85.0328 61.2065C85.0328 62.8057 85.3007 64.0477 85.8392 64.9326C86.3777 65.8174 87.2165 66.2585 88.3639 66.2585C89.8711 66.2585 91.2132 65.8526 92.3957 65.0408C93.5647 64.2371 94.6498 63.2197 95.6699 61.9695C95.6375 61.9262 95.6077 61.8884 95.5779 61.8451V61.8559L95.5725 61.8586Z" fill="white"/>
<path id="Vector_2" d="M122.424 59.4882L122.264 59.6803C121.379 60.7546 120.73 61.496 120.313 61.9019C119.894 62.3105 119.471 62.5134 119.041 62.5134C118.013 62.5134 117.502 61.2606 117.502 58.7495C117.502 57.8673 117.483 56.4359 117.58 54.4281L117.715 51.76C117.753 51.0077 117.783 50.0038 117.794 49.625L115.053 49.5222L112.726 49.4653C112.56 49.8875 112.033 51.0564 111.586 52.0793C111.148 53.0859 110.72 54.2792 110.136 55.5943C109.549 56.9094 108.981 58.0919 108.434 59.1418C107.717 60.5273 107.211 61.4013 106.91 61.7585C106.613 62.1157 106.342 62.2943 106.104 62.2943C105.671 62.2943 105.457 61.864 105.457 61.0035C105.457 60.7546 105.493 60.3757 105.555 59.8914C104.191 59.8968 102.841 60.0321 101.485 60.1268C101.377 60.5706 101.301 61.0441 101.301 61.5772C101.301 62.9166 101.647 64.0261 102.34 64.9082C103.033 65.7931 103.988 66.2341 105.206 66.2341C106.997 66.2341 108.594 65.3736 109.99 63.6526C111.386 61.9344 112.563 59.4828 113.518 56.306H113.591C113.494 57.3586 113.448 58.4437 113.448 59.5667C113.448 61.8126 113.746 63.4903 114.344 64.6024C114.944 65.7146 115.943 66.2693 117.355 66.2693C118.43 66.2693 119.39 66.0609 120.24 65.6415C121.008 65.2627 121.65 64.8189 122.205 64.321C122.348 62.711 122.508 61.1009 122.424 59.4828V59.4909V59.4882Z" fill="white"/>
<path id="Vector_3" d="M139.374 58.533C139.552 58.8171 139.642 59.2122 139.642 59.7155C139.642 60.6734 139.414 61.4121 138.96 61.9371C138.075 63.0113 136.83 64.0044 135.215 64.9136C133.602 65.8228 131.876 66.2747 130.038 66.2747C127.53 66.2747 125.584 65.5928 124.193 64.2317C122.808 62.8679 122.118 61.0062 122.118 58.6412C122.118 56.9933 122.464 55.459 123.157 54.0384C123.85 52.6178 124.81 51.4867 126.041 50.6532C127.273 49.8171 128.664 49.4004 130.217 49.4004C131.602 49.4004 132.712 49.8117 133.551 50.637C134.384 51.4596 134.803 52.5772 134.803 53.987C134.803 55.6349 134.211 57.0501 133.031 58.2326C131.848 59.4151 129.849 60.3514 127.029 61.0441C127.627 62.1427 128.758 62.692 130.433 62.692C131.508 62.692 132.731 62.3159 134.105 61.5636C135.477 60.8087 136.668 59.8264 137.672 58.606C137.958 58.2732 138.283 58.1054 138.64 58.1054C138.952 58.1054 139.198 58.2488 139.376 58.5357L139.371 58.5303L139.374 58.533ZM125.165 46.4022C124.732 45.9828 124.521 45.3333 124.521 44.4485C124.521 43.4933 124.778 42.7464 125.292 42.208C125.806 41.6695 126.491 41.4043 127.354 41.4043C128.12 41.4043 128.715 41.6127 129.145 42.0294C129.578 42.4488 129.792 43.0982 129.792 43.9804C129.792 44.9383 129.535 45.6851 129.018 46.2209C128.504 46.7594 127.819 47.03 126.962 47.03C126.196 47.03 125.598 46.8216 125.17 46.4049H125.167L125.165 46.4022ZM127.367 54.4497C126.759 55.4753 126.453 56.7173 126.453 58.1758V58.2488C127.863 57.916 128.975 57.4154 129.789 56.7443C130.598 56.076 131.007 55.2994 131.007 54.4145C131.007 53.9599 130.882 53.5946 130.631 53.3213C130.379 53.048 130.038 52.9073 129.611 52.9073C128.726 52.9073 127.982 53.4214 127.373 54.447H127.37L127.367 54.4497ZM132.62 46.4022C132.187 45.9828 131.976 45.3333 131.976 44.4485C131.976 43.4933 132.235 42.7464 132.747 42.208C133.261 41.6695 133.946 41.4043 134.806 41.4043C135.572 41.4043 136.167 41.6127 136.597 42.0294C137.03 42.4488 137.244 43.0982 137.244 43.9804C137.244 44.9383 136.987 45.6851 136.473 46.2209C135.959 46.7594 135.274 47.03 134.414 47.03C133.648 47.03 133.053 46.8216 132.622 46.4049H132.625L132.62 46.4022Z" fill="white"/>
<path id="Vector_4" d="M153.063 59.1554C151.678 60.0917 150.26 61.1037 148.78 62.2565C148.899 61.4907 149.015 60.7682 149.121 60.089C149.229 59.4098 149.332 58.7793 149.426 58.2056C149.927 55.1966 150.227 53.3214 150.322 52.58C150.346 52.4122 150.373 52.1605 150.411 51.8791C150.49 51.2649 150.576 50.6885 150.576 50.6885H148.715L147.132 50.721C146.91 50.2258 146.631 49.4275 146.631 49.4275C146.631 49.4275 146.155 49.3247 145.627 49.3247C143.979 49.3247 142.421 49.8442 140.951 50.8833C139.482 51.9224 138.308 53.297 137.423 55.0045C136.538 56.7147 136.097 58.5249 136.097 60.4326C136.097 62.1753 136.541 63.5851 137.423 64.6593C138.308 65.7336 139.49 66.2721 140.97 66.2721C141.614 66.2721 142.266 66.0989 142.921 65.7525C143.579 65.4062 144.109 64.911 144.515 64.2643L144.299 65.6605C140.618 68.5018 138.11 70.8993 136.776 72.8448C135.437 74.7904 134.768 76.6115 134.768 78.3109C134.768 79.5286 135.15 80.5135 135.916 81.2712C136.681 82.0234 137.669 82.3996 138.889 82.3996C141.157 82.3996 143.027 80.9844 144.496 78.1539C145.965 75.3262 147.153 71.435 148.063 66.4913L150.354 64.9516C151.264 64.313 152.684 63.3442 154.587 62.0589C154.089 61.0875 153.577 60.1242 153.058 59.1608L153.063 59.1554ZM141.308 76.7739C140.554 78.208 139.882 78.9224 139.284 78.9224C138.925 78.9224 138.667 78.7952 138.513 78.5273C138.359 78.2649 138.281 77.9293 138.281 77.5234C138.281 76.5682 138.686 75.4588 139.498 74.1897C140.31 72.9233 141.636 71.5027 143.476 69.9278C142.783 73.0586 142.061 75.3397 141.308 76.7739ZM144.91 58.782C144.694 60.024 144.336 60.9819 143.836 61.6476C143.335 62.316 142.81 62.6488 142.261 62.6488C141.712 62.6488 141.322 62.4702 141.024 62.113C140.727 61.7559 140.578 61.2038 140.578 60.4651C140.578 59.1257 140.83 57.8593 141.333 56.666C141.833 55.4726 142.502 54.5093 143.338 53.7814C144.174 53.0535 145.081 52.6747 146.063 52.6503L144.916 58.7793H144.913L144.91 58.782Z" fill="white"/>
<path id="Vector_5" d="M77.9973 52.8938C73.776 65.701 60.5953 62.8111 53.384 54.9097C50.9946 52.293 48.7947 49.4356 45.7911 47.4683C41.0286 44.3484 35.135 43.8586 29.9721 46.4022C19.8681 51.3784 19.2917 63.8718 26.4111 71.4647C27.2797 70.6096 28.3756 69.8384 29.5121 69.2485C23.4237 63.0952 23.5373 52.2849 33.2625 49.1C39.6973 46.9921 44.9198 51.1755 48.9787 55.5862C52.123 59.0038 55.0103 62.8409 59.3804 64.7729C69.0974 69.07 78.5196 63.3523 81.6341 53.895C82.3972 51.5841 78.755 50.5937 77.9973 52.8911V52.8938Z" fill="white"/>
<path id="Vector_6" d="M18.1471 94.9853C17.0133 95.245 15.9715 95.4317 15.0974 95.4859C14.9053 93.7189 14.3073 92.2306 13.3061 91.0264C12.3022 89.8196 11.6609 89.6383 10.0617 89.5165C11.7042 86.7321 12.3482 84.8785 13.0896 82.9438C13.8311 81.0117 14.2018 79.0634 14.2018 77.1016C14.2018 75.5971 13.8662 74.3713 13.1979 73.4269C12.5295 72.4826 11.6474 72.0117 10.546 72.0117C8.51657 72.0117 6.76582 73.2835 5.29649 75.8271C3.82716 78.3734 2.7096 81.4555 1.94652 85.0733C1.18073 88.6939 0.799194 92.0412 0.799194 95.1233C0.799194 98.6139 1.3485 101.277 2.44712 103.117C3.54574 104.957 5.3019 105.877 7.71561 105.877C9.31483 105.877 10.7815 105.268 12.1047 104.05C13.4306 102.833 14.3344 101.233 14.8106 99.2498C16.4477 99.1795 17.9495 98.9035 19.3269 98.4462C18.9643 97.2826 18.5746 96.1272 18.1498 94.9853H18.1471ZM6.60346 83.4823C7.07971 81.0469 7.59925 79.1176 8.16209 77.6942C8.72493 76.2736 9.24447 75.5646 9.72072 75.5646C10.0292 75.5646 10.2754 75.7676 10.454 76.1735C10.6353 76.5821 10.7246 77.1666 10.7246 77.9296C10.7246 79.6479 10.2538 81.6151 9.30942 83.8232C8.36504 86.034 7.10406 88.5857 5.5292 91.4729C5.77003 88.583 6.12721 85.9176 6.60346 83.4795V83.4823ZM9.82896 101.149C9.2553 101.772 8.59775 102.083 7.85903 102.083C7.1663 102.083 6.56287 101.723 6.04874 101.009C5.53461 100.292 5.27755 99.2553 5.27755 97.8915C5.27755 96.2679 5.60497 94.969 6.26522 94.003C6.92277 93.0343 7.73996 92.5526 8.71952 92.5526H8.82505C8.73034 93.1263 8.68163 93.5782 8.68163 93.9164C8.68163 94.8256 8.87917 95.6834 9.27424 96.4979C9.66931 97.3097 10.2376 97.9672 10.979 98.4678C10.9682 98.5355 13.9799 99.1145 13.9691 99.1822C13.9528 99.2688 10.6624 99.7261 10.6353 99.8046C10.3674 100.497 10.3323 100.619 9.83167 101.155L9.82896 101.149Z" fill="white"/>
<path id="Vector_7" d="M67.4874 99.3822C66.8596 100.048 66.3022 100.559 65.8206 100.881C65.0927 101.371 64.3323 101.617 63.5476 101.617C62.4977 101.617 61.7454 100.787 61.2881 99.1278C60.8362 97.4663 60.6089 95.169 60.6089 92.2303C60.6089 88.8614 60.9066 84.1666 61.5046 78.1458C61.602 77.2393 61.7806 75.881 61.7806 75.881L58.7337 75.7186L56.3118 75.6185C56.3118 75.6185 56.1495 75.8728 55.8789 76.4059C55.6624 76.8334 55.4351 77.3476 55.0536 78.1837C53.5734 81.3362 52.1744 84.6942 50.8593 88.2526C49.5443 91.8136 48.5782 94.9173 47.9559 97.5692H47.8828C47.3064 92.3629 47.0223 87.8223 47.0223 83.9528C47.0223 82.3049 47.0818 80.4648 47.2009 78.4354L47.3876 75.6618C46.2186 75.6618 41.2451 75.4155 41.2451 75.4155C41.2451 75.4155 40.8311 77.1663 40.6417 78.2162C39.5674 83.9014 38.5689 88.4663 37.6489 91.9056C36.7289 95.3476 35.8467 97.8425 34.9971 99.3957C34.1501 100.946 33.2734 101.723 32.3642 101.723C31.6471 101.723 31.0437 101.49 30.5566 101.025C30.1588 100.649 29.8801 100.097 29.6636 99.4498C28.3512 99.9829 27.0632 100.516 25.6913 100.822C25.786 101.59 25.9862 102.332 26.3813 103.016C26.9063 103.925 27.6531 104.645 28.6218 105.184C29.5906 105.722 30.6919 105.993 31.9366 105.993C34.2286 105.993 36.0821 105.097 37.4892 103.303C38.899 101.512 39.9814 99.2712 40.7337 96.5842C41.4886 93.8972 42.3275 90.1657 43.261 85.3843H43.3341C43.2394 86.5532 43.1907 87.9306 43.1907 89.5054C43.1907 92.2303 43.3584 94.9228 43.6913 97.5854C44.0268 100.251 44.4949 102.537 45.0875 104.448C45.4231 105.595 45.507 105.446 45.507 105.446L49.206 105.484C49.206 105.484 49.5064 104.935 49.7445 104.196C51.9444 97.2445 54.2364 90.4823 56.6257 83.9149H56.6988C56.1468 87.6897 55.8735 90.9369 55.8735 93.6618C55.8735 97.6287 56.4174 100.654 57.5052 102.746C58.593 104.835 60.1868 105.882 62.2866 105.882C63.672 105.882 64.9628 105.541 66.1561 104.862C66.5863 104.615 67.0193 104.299 67.455 103.944C67.4874 102.424 67.5145 100.906 67.482 99.3849V99.3795L67.4874 99.3822Z" fill="white"/>
<path id="Vector_8" d="M86.54 95.1068C86.7051 95.418 86.7917 95.8131 86.7917 96.2893C86.7917 97.4367 86.4453 98.1158 85.7526 98.3323C84.3184 98.8329 82.7409 99.1225 81.0199 99.1928C80.568 101.198 79.6696 102.808 78.3329 104.012C76.9934 105.219 75.4781 105.82 73.7814 105.82C72.3473 105.82 71.1242 105.473 70.1068 104.781C69.092 104.088 68.3208 103.168 67.7959 102.021C67.2709 100.873 67.0057 99.6312 67.0057 98.2944C67.0057 96.4788 67.3521 94.8579 68.0448 93.4373C68.7376 92.0166 69.6927 90.9072 70.9131 90.1035C72.1308 89.3026 73.4811 88.9048 74.9612 88.9048C76.7769 88.9048 78.2436 89.5326 79.353 90.7854C80.4651 92.0383 81.1146 93.5861 81.304 95.4261C82.427 95.3531 83.7637 95.1177 85.3196 94.7091C85.5117 94.6604 85.6795 94.636 85.8202 94.636C86.1314 94.636 86.3722 94.7929 86.5373 95.1014L86.54 95.1068ZM76.1086 101.149C76.5848 100.619 76.6822 100.378 76.8987 99.872C76.942 99.7719 79.6912 99.0711 79.5776 99.0738C78.7875 99.1008 77.6293 98.6922 77.2369 98.4595C76.4955 97.9589 75.9273 97.2987 75.5322 96.4896C75.1371 95.6751 74.9396 94.8173 74.9396 93.9081C74.9396 93.5266 74.9775 93.1423 75.0478 92.7608H74.8665C73.9113 92.7608 73.1185 93.2235 72.4853 94.1381C71.8494 95.0581 71.5328 96.357 71.5328 98.0238C71.5328 99.3389 71.7899 100.343 72.304 101.036C72.8181 101.728 73.4216 102.075 74.1143 102.075C74.8801 102.075 75.5403 101.766 76.1031 101.141H76.1059L76.1086 101.149Z" fill="white"/>
<path id="Vector_9" d="M95.448 104.578C95.9919 102.665 96.7252 100.806 97.2637 98.8952C96.3626 99.8666 95.448 100.632 94.5226 101.168C93.3861 101.826 92.3308 102.153 91.3539 102.153C88.9375 102.153 87.7333 100.768 87.7333 97.9968C87.7333 96.9929 87.8741 96.0756 88.1636 95.2367C88.4504 94.4006 88.832 93.7376 89.3109 93.2479C89.7872 92.7581 90.304 92.5118 90.8533 92.5118C91.1401 92.5118 91.362 92.5984 91.5163 92.7635C91.6705 92.9313 91.7517 93.1721 91.7517 93.4806C91.7517 93.789 91.7246 93.9108 91.6813 94.268C91.6218 94.5684 91.5623 94.7578 91.4946 94.9688C91.4134 95.2313 91.2403 95.7346 91.1374 96.0377L93.9165 97.1093C93.9165 97.1093 94.2655 96.5112 94.6335 95.7022C94.9718 94.9526 95.2965 94.1625 95.2965 93.1559C95.2965 91.9382 94.9312 90.9397 94.2033 90.1658C93.4754 89.3865 92.4552 88.9995 91.1401 88.9995C89.825 88.9995 88.5235 89.3946 87.3058 90.182C86.0881 90.9721 85.095 92.0897 84.3293 93.5482C84.0127 94.1516 83.7772 94.8065 83.5932 95.4911C85.2818 94.682 87.2977 96.9712 85.7255 98.5028C84.9706 99.2388 84.1669 99.9153 83.4336 100.67C83.7231 101.923 84.2724 103.008 85.1383 103.888C86.4399 105.214 88.2637 105.877 90.6044 105.877C92.0629 105.877 93.5728 105.5 95.1368 104.745C95.2451 104.691 95.3452 104.629 95.4507 104.572L95.448 104.578Z" fill="white"/>
<path id="Vector_10" d="M114.1 99.4147C114.1 99.3984 114.1 99.4309 114.1 99.4147L114.252 98.6056C113.264 99.7583 112.271 100.776 111.673 101.279C110.98 101.866 110.193 102.159 109.308 102.159C108.185 102.159 107.324 101.769 106.726 100.995C106.128 100.216 105.831 99.1847 105.831 97.8939C105.831 96.936 105.966 96.0485 106.245 95.2232C106.521 94.4006 106.886 93.743 107.338 93.2532C107.793 92.7635 108.258 92.5172 108.734 92.5172C109.354 92.5172 109.668 92.8392 109.668 93.4859C109.668 93.7944 109.611 94.2571 109.492 94.6143C109.468 94.709 109.324 95.1176 109.259 95.3449C109.197 95.5587 108.986 96.2325 108.986 96.2325C109.33 96.3651 111.47 96.7629 111.925 96.7629C111.968 96.7872 112.165 96.43 112.555 95.7075C112.945 94.985 113.218 94.1678 113.218 93.1612C113.218 91.9436 112.864 90.945 112.16 90.1711C111.454 89.3918 110.482 89.0049 109.238 89.0049C107.373 89.0049 105.785 89.722 104.472 91.1534C103.157 92.5876 102.069 94.9769 101.209 98.3188C101.258 97.3609 101.347 96.4868 101.477 95.6859C101.607 94.8849 101.753 94.1868 101.91 93.5915C102.064 92.9935 102.167 92.6092 102.213 92.4442C102.57 91.1047 102.784 90.2929 102.873 89.8789L103.027 89.1591C103.027 89.1591 101.439 89.0942 100.96 89.0942C100.075 89.0942 98.9685 89.1402 98.9685 89.1402C98.9685 89.1402 98.5545 90.3173 98.3407 91.01C97.4558 93.8052 97.0148 96.7574 97.0148 99.8639C97.0148 101.964 97.2258 103.433 97.4883 104.423C97.721 105.287 97.8076 105.6 97.8076 105.6L101.439 105.565C101.439 105.565 101.731 104.331 101.996 103.373C102.308 102.226 102.486 101.558 102.535 101.368C102.703 102.012 103.073 102.683 103.647 103.373C104.221 104.066 104.968 104.659 105.888 105.146C106.808 105.636 107.828 105.882 108.953 105.882C110.317 105.882 111.532 105.481 112.609 104.683C112.809 104.534 113.01 104.334 113.213 104.166C113.57 102.594 113.903 101.014 114.106 99.4147L114.095 99.4201L114.1 99.4147Z" fill="white"/>
<path id="Vector_11" d="M115.545 88.0469C115.937 88.1579 116.3 88.4339 116.56 88.7802C117.507 88.6639 118.302 88.2201 119.017 87.503C119.201 86.1041 119.415 84.7565 119.664 83.482C120.14 81.0439 120.659 79.1173 121.222 77.694C121.785 76.2733 122.305 75.5644 122.781 75.5644C123.089 75.5644 123.336 75.7673 123.514 76.1732C123.695 76.5818 123.785 77.1663 123.785 77.9294C123.785 79.6476 123.314 81.6149 122.37 83.8229C122.01 84.6645 121.588 85.5764 121.136 86.5181C121.525 86.5911 121.899 86.7372 122.15 86.997C122.697 87.5571 122.773 88.2634 122.551 88.9155C124.218 86.832 125.422 84.8431 126.15 82.9435C126.891 81.0114 127.262 79.0632 127.262 77.1041C127.262 75.5995 126.926 74.3737 126.258 73.4294C125.59 72.485 124.707 72.0142 123.606 72.0142C121.577 72.0142 119.826 73.286 118.357 75.8295C116.887 78.3758 115.77 81.4579 115.007 85.0758C114.787 86.1122 114.609 87.1215 114.452 88.1119C114.782 87.9874 115.142 87.9306 115.542 88.0442H115.545V88.0469Z" fill="white"/>
<path id="Vector_12" d="M133.391 95.1662C133.223 94.8578 132.982 94.7008 132.674 94.7008C132.484 94.7008 132.317 94.7252 132.173 94.7739C130.623 95.1825 129.283 95.4179 128.16 95.4909C127.968 93.724 127.37 92.2357 126.369 91.0315C125.379 89.8409 124.093 89.1807 122.518 89.0508C122.429 89.2673 122.307 89.4783 122.156 89.6704C120.143 92.187 117.277 92.8959 114.189 92.3953C114.111 92.3818 114.046 92.3466 113.973 92.3223C113.905 93.2802 113.862 94.2219 113.862 95.1311C113.862 98.6217 114.411 101.284 115.51 103.124C116.609 104.964 118.365 105.885 120.778 105.885C122.378 105.885 123.844 105.276 125.168 104.058C126.493 102.84 127.397 101.241 127.873 99.2576C129.594 99.1846 131.172 98.8977 132.606 98.3971C132.963 98.2781 133.229 98.0562 133.396 97.7342C133.561 97.4122 133.648 96.9495 133.648 96.3569C133.648 95.8806 133.561 95.4855 133.396 95.1744L133.391 95.1662ZM122.889 101.149C122.315 101.774 121.658 102.083 120.919 102.083C120.226 102.083 119.623 101.723 119.109 101.008C118.595 100.291 118.338 99.2549 118.338 97.8911C118.338 96.2676 118.665 94.9687 119.323 94.0027C119.98 93.0339 120.797 92.5523 121.777 92.5523H121.883C121.788 93.1259 121.739 93.5778 121.739 93.9134C121.739 94.8226 121.937 95.6804 122.332 96.4949C122.727 97.3094 123.198 98.0048 123.942 98.3998C124.637 98.9221 127.24 99.2252 127.227 99.2928C127.202 99.4254 123.658 100.072 123.587 100.18C123.311 100.624 123.357 100.64 122.886 101.152L122.889 101.149Z" fill="white"/>
<path id="Vector_13" d="M145.4 100.021C145.097 99.78 144.799 99.5337 144.496 99.2956C143.741 100.01 142.932 100.659 142.009 101.168C140.637 101.92 139.412 102.299 138.335 102.299C136.662 102.299 135.529 101.747 134.931 100.651C137.748 99.9586 139.747 99.0196 140.932 97.8371C142.115 96.6546 142.705 95.2394 142.705 93.5915C142.705 92.1817 142.285 91.0641 141.452 90.2415C140.616 89.4162 139.504 89.0049 138.116 89.0049C136.565 89.0049 135.169 89.4243 133.94 90.2577C132.709 91.0939 131.748 92.225 131.056 93.6456C130.78 94.2111 130.577 94.801 130.409 95.4018C131.656 95.0148 132.947 96.154 132.866 97.3609C132.866 97.4069 132.85 97.4502 132.844 97.4935C132.82 97.6423 132.796 97.7857 132.728 97.9345C132.66 98.0806 132.549 98.2187 132.43 98.3594C132.387 98.4081 132.373 98.4622 132.325 98.5109C132.314 98.5217 132.3 98.5325 132.29 98.5461C132.29 98.5461 132.29 98.5461 132.284 98.5515C131.989 98.8248 131.683 99.0737 131.421 99.3768C131.418 99.3795 131.413 99.3822 131.41 99.3849C131.026 99.7556 130.652 100.14 130.293 100.538C130.606 101.847 131.196 102.959 132.097 103.844C133.483 105.208 135.431 105.887 137.94 105.887C139.78 105.887 141.506 105.433 143.116 104.526C144.729 103.617 145.976 102.627 146.861 101.552C146.872 101.542 146.875 101.52 146.886 101.509C146.331 101.084 145.836 100.581 145.397 100.029H145.395L145.4 100.021ZM134.357 97.7803C134.357 96.3218 134.663 95.0825 135.272 94.0542C135.883 93.0259 136.627 92.5145 137.512 92.5145C137.945 92.5145 138.283 92.6525 138.532 92.9285C138.784 93.2018 138.908 93.5671 138.908 94.0217C138.908 94.9066 138.5 95.6832 137.691 96.3516C136.876 97.0199 135.767 97.5232 134.354 97.8561V97.783H134.357V97.7803Z" fill="white"/>
<path id="Vector_14" d="M127.246 77.8431C126.396 76.8337 124.042 77.2802 123.731 78.9877C123.135 82.2321 120.47 89.227 116.311 86.8539C116.057 86.7105 117.491 87.9417 117.25 87.9146C116.538 82.7408 112.98 78.893 107.419 77.605C103.455 76.6876 99.8885 77.5075 96.3112 79.0526C87.7658 82.7436 80.1918 83.669 73.0725 76.2817C72.2093 77.1936 71.3407 78.1028 70.472 79.0148C74.6852 83.3632 80.0565 86.0286 86.2234 86.0421C88.8455 86.0475 91.4378 85.2899 93.8704 84.3211C95.3993 83.7123 96.7036 83.117 98.2135 82.4946C105.16 79.6317 114.273 82.0373 114.116 90.1714C116.611 91.3133 120.305 91.0021 122.494 89.3298C124.329 87.9282 125.403 85.9176 126.193 83.7908C126.883 81.8831 127.246 79.3828 127.246 77.8404V77.8431Z" fill="white"/>
<path id="Vector_15" d="M58.068 31.5251C56.393 32.1989 54.829 32.7401 53.4246 33.0891C51.8362 33.4842 50.264 33.6817 48.7108 33.6817C45.58 33.6817 43.2177 32.8997 41.6158 31.333C40.0166 29.7689 39.2129 27.5527 39.2129 24.6844C39.2129 21.8161 39.6567 19.5648 40.5388 17.5705C41.4237 15.5762 42.5818 14.0636 44.016 13.038C45.4501 12.0125 46.9574 11.4983 48.5322 11.4983C50.8485 11.4983 52.0094 12.5861 52.0094 14.759C52.0094 15.1892 51.9363 15.7629 51.7929 16.48C51.7767 16.5774 51.7685 16.6396 51.755 16.7289C53.2676 17.0753 54.7803 17.4379 56.3416 17.4406C56.6284 16.6721 56.7746 15.7413 56.7746 14.6535C56.7746 12.4806 56.1035 10.7298 54.7667 9.40391C53.43 8.078 51.4682 7.41504 48.8894 7.41504C46.1185 7.41504 43.5966 8.16188 41.329 9.65557C39.0614 11.1493 37.2619 13.2572 35.936 15.9821C34.6101 18.707 33.9471 21.8242 33.9471 25.3339C33.9471 27.8666 34.51 30.0882 35.633 31.9986C36.7559 33.909 38.3687 35.3838 40.4685 36.4229C42.5683 37.4619 45.0415 37.9815 47.8882 37.9815C49.5361 37.9815 51.2734 37.8083 53.0999 37.4619C54.3176 37.2319 55.4973 36.8802 56.6528 36.4743C57.2481 34.8696 57.7 33.2109 58.0653 31.5251H58.068Z" fill="white"/>
<path id="Vector_16" d="M74.0413 36.5338C74.7448 34.9968 74.8476 33.2866 75.1615 31.6306C75.1832 31.4601 75.2048 31.2869 75.2238 31.1164C74.4417 32.0175 73.7896 32.7021 73.2782 33.1594C72.6206 33.7466 72.0551 34.0362 71.5761 34.0362C71.265 34.0362 71.0133 33.9117 70.8239 33.66C70.6318 33.4084 70.5371 33.0566 70.5371 32.602C70.5371 31.8849 70.8699 29.9989 71.541 26.9384C72.139 24.2623 72.3663 22.6224 72.4366 22.0271C72.4799 21.6537 72.4989 21.5428 72.507 21.2695L70.8158 21.2262L68.8567 21.2154C68.7484 21.578 68.5049 22.3816 68.3155 23.0987C67.8609 24.8413 67.5118 26.2755 67.2764 27.3985H62.6898C62.8576 26.2755 63.0659 25.3257 63.2283 24.5329C63.5043 23.1691 63.6829 22.3464 63.7668 21.9514C63.8506 21.5563 63.8912 21.2343 63.8912 21.2343C63.8912 21.2343 62.4246 21.1802 61.9456 21.1802C61.0364 21.1802 60.0704 21.237 60.0704 21.237C59.9757 21.5157 59.6077 22.387 59.3588 23.0987C58.3819 25.8642 57.838 28.8867 57.838 31.9932C57.838 34.0957 57.9002 35.4433 58.0734 36.5392C58.1465 36.9911 58.2114 37.3726 58.2656 37.6838H62.1053C62.1053 37.6838 62.1161 36.8693 62.1215 36.2523C62.1269 35.6516 62.1865 34.6098 62.2271 33.1324V32.3801C62.2271 32.1176 62.2514 31.6522 62.3001 30.9838C63.1146 31.0325 64.5677 31.0569 66.6729 31.0569C66.5539 31.9661 66.4916 32.74 66.4916 33.3867C66.4916 34.9156 66.746 36.0629 67.2466 36.826C67.7472 37.5918 68.6185 37.9733 69.8606 37.9733C71.3407 37.9733 72.6612 37.5674 73.8194 36.7556C73.8924 36.7042 73.9601 36.6366 74.0304 36.5852C74.0386 36.5662 74.0358 36.5473 74.0467 36.5283V36.5365L74.0413 36.5338Z" fill="white"/>
<path id="Vector_17" d="M91.7787 29.8446C91.96 30.1342 92.052 30.5346 92.052 31.0434C92.052 32.0148 91.822 32.7644 91.362 33.2974C90.4636 34.3906 89.1999 35.3945 87.5601 36.3173C85.923 37.24 84.1723 37.7 82.3052 37.7C79.7589 37.7 77.7835 37.01 76.3764 35.6273C74.972 34.2445 74.2685 32.3531 74.2685 29.9502C74.2685 28.2752 74.6203 26.7193 75.3238 25.277C76.0274 23.8347 77.0042 22.6874 78.2517 21.8404C79.4991 20.9935 80.9143 20.5659 82.4892 20.5659C83.8936 20.5659 85.022 20.9853 85.8716 21.8215C86.7186 22.6576 87.1434 23.7914 87.1434 25.2229C87.1434 26.8978 86.5427 28.3347 85.344 29.5334C84.1452 30.7322 82.1131 31.6847 79.2529 32.3882C79.859 33.5058 81.009 34.0632 82.7084 34.0632C83.8016 34.0632 85.0409 33.6817 86.4345 32.9159C87.828 32.1501 88.307 31.6143 89.6275 30.1802C90.1579 29.5551 90.672 29.4063 91.0346 29.4063C91.3512 29.4063 91.6001 29.5497 91.7814 29.8446V29.8392L91.7787 29.8446ZM79.5911 25.6991C78.9741 26.7409 78.663 28.0019 78.663 29.482V29.5551C80.0917 29.2169 81.2228 28.7081 82.0454 28.0262C82.868 27.347 83.282 26.5596 83.282 25.6612C83.282 25.1985 83.1548 24.8305 82.9005 24.5518C82.6461 24.2758 82.2998 24.1324 81.8641 24.1324C80.9657 24.1324 80.2081 24.6546 79.5911 25.6964V25.6991Z" fill="white"/>
<path id="Vector_18" d="M104.992 30.2398C104.811 29.953 104.564 29.8096 104.256 29.8096C103.872 29.8096 103.55 29.9774 103.287 30.3102C102.213 31.6009 101.301 32.0014 100.054 32.9458C98.6627 34.0038 96.7766 34.3583 95.3668 34.3583C94.4089 34.3583 93.7405 34.2528 93.359 34.0363C92.9775 33.8225 92.7853 33.4518 92.7853 32.9241C92.7853 32.2801 93.0235 31.7633 93.5024 31.3845C93.9787 31.0029 94.7336 30.5483 95.7619 30.0207C96.7171 29.5444 97.491 29.1006 98.089 28.6947C98.687 28.2888 99.2011 27.7395 99.6287 27.0468C100.059 26.3541 100.273 25.4963 100.273 24.4653C100.273 23.272 99.8127 22.3574 98.8954 21.7242C97.9753 21.0937 96.6224 20.7744 94.8283 20.7744C93.8704 20.7744 92.9315 20.9205 91.9844 21.2371C91.0454 21.551 90.423 21.8324 89.8818 22.1653C89.1134 22.6415 88.5532 23.1611 88.5532 23.1611L90.0902 25.6154C90.3202 25.5207 90.8506 25.2474 91.1185 25.1256C91.3674 25.0119 91.565 24.8902 91.8383 24.7603C92.2929 24.5276 92.6771 24.3598 93.0343 24.2299C93.3942 24.1 93.8001 24.0324 94.252 24.0324C94.7526 24.0324 95.1341 24.119 95.3993 24.3003C95.6645 24.4789 95.7944 24.7251 95.7944 25.0336C95.7944 25.5829 95.5671 26.0537 95.1152 26.4488C94.6579 26.8439 93.9435 27.3039 92.9639 27.8261C92.006 28.3267 91.2159 28.8111 90.58 29.2765C89.9495 29.7419 89.411 30.34 88.9672 31.0679C88.9321 31.1274 88.9212 31.1977 88.8888 31.2573C90.212 30.3643 92.4579 31.3276 91.7841 33.1785C91.2808 34.5639 90.7315 35.9386 90.1416 37.2888C91.2808 37.9707 92.8584 38.3225 94.8987 38.3225C96.939 38.3225 98.733 37.922 100.381 37.1238C102.029 36.3228 102.757 35.7437 103.904 34.2122C104.356 33.6142 105.254 32.2937 105.254 31.4088C105.254 30.9082 105.162 30.5131 104.986 30.2263L104.992 30.2398Z" fill="white"/>
<path id="Vector_19" d="M131.903 30.9488C123.75 36.5609 113.927 34.1716 108.667 25.9888L105.682 26.097C104.121 28.8354 102.305 31.0597 99.8723 33.1C98.0106 34.6613 100.229 37.6027 102.286 36.0008C104.343 34.3962 105.915 32.5751 107.341 30.5267C113.965 38.5417 124.9 39.9542 133.781 34.1824C133.158 33.1027 132.528 32.0258 131.9 30.9488H131.903Z" fill="white"/>
<path id="Vector_20" d="M70.3963 51.2324C70.6426 51.2242 70.8347 51.0186 70.8266 50.7751C70.8184 50.5288 70.6128 50.3367 70.3692 50.3448L68.5969 50.407C68.31 50.407 68.0259 50.334 67.7715 50.2041L66.6269 49.5438C66.5052 49.5033 66.4375 49.3707 66.4781 49.2489C66.5024 49.1785 66.5566 49.1244 66.6269 49.1001L67.7715 48.4371C68.0286 48.3072 68.31 48.2342 68.5969 48.2342L70.3692 48.2964C70.6155 48.3045 70.8211 48.1124 70.8266 47.8662C70.8347 47.6199 70.6426 47.417 70.3963 47.4089H70.0418C69.7983 47.4089 69.7739 47.2952 69.9823 47.168L70.8184 46.6864C71.0241 46.5673 71.0944 46.3048 70.9808 46.0938C70.859 45.8908 70.5993 45.8205 70.3882 45.9314L69.5521 46.4158C69.341 46.5348 69.2571 46.4618 69.3789 46.2453L69.5439 45.9341C69.6522 45.7203 69.571 45.4579 69.3599 45.3415C69.1462 45.2333 68.8837 45.3144 68.7673 45.5255L67.9366 47.0895C67.7932 47.3385 67.5902 47.5469 67.344 47.7038L66.175 48.3316C65.9613 48.4506 65.7908 48.3559 65.7908 48.1097V46.7892C65.8043 46.5024 65.8855 46.2209 66.0289 45.972L66.9679 44.4675C67.1086 44.2672 67.0599 43.9912 66.8596 43.8478C66.6567 43.7071 66.3834 43.7558 66.24 43.9561C66.2291 43.9696 66.221 43.9858 66.2129 44.0021L66.0262 44.297C65.8963 44.5054 65.7881 44.4702 65.7881 44.2294V43.2633C65.7881 43.0171 65.5905 42.8223 65.347 42.8223C65.1035 42.8223 64.9032 43.0198 64.9032 43.2633V44.2294C64.9032 44.4729 64.7977 44.5027 64.6651 44.297L64.4784 44.0021C64.3485 43.7937 64.0752 43.7315 63.8668 43.8614C63.6585 43.9912 63.5935 44.2645 63.7261 44.4729L64.6651 45.9774C64.8058 46.2291 64.8897 46.5078 64.9032 46.7946V48.1097C64.9032 48.3559 64.7328 48.4534 64.519 48.3316L63.3744 47.674C63.1308 47.5198 62.9306 47.3087 62.7818 47.0598L61.951 45.4822C61.8374 45.2712 61.5749 45.19 61.3584 45.2982C61.1474 45.4119 61.0662 45.6743 61.1744 45.8908L61.3395 46.202C61.4531 46.4185 61.3747 46.4969 61.1663 46.3725L60.322 45.9098C60.1137 45.7988 59.8539 45.8692 59.7294 46.0721C59.6158 46.2805 59.6862 46.5402 59.8918 46.6647L60.7279 47.1464C60.939 47.2708 60.9119 47.3764 60.6684 47.3872H60.3139C60.0677 47.3953 59.8756 47.601 59.8837 47.8445C59.8918 48.0908 60.0975 48.2829 60.341 48.2748L62.1134 48.2125C62.4002 48.2125 62.6843 48.2856 62.9387 48.4155L64.0833 49.0757C64.2051 49.1163 64.2727 49.2489 64.2322 49.3707C64.2078 49.441 64.1537 49.4951 64.0833 49.5195L62.9279 50.2095C62.6708 50.3394 62.3894 50.4125 62.1026 50.4125L60.3302 50.3502C60.0839 50.3421 59.8783 50.5342 59.8702 50.7805C59.862 51.0267 60.0542 51.2324 60.3004 51.2378H60.6549C60.8984 51.2378 60.9228 51.3514 60.7144 51.4786L59.8783 51.9819C59.678 52.1064 59.6131 52.3689 59.7322 52.5745C59.8539 52.7856 60.1272 52.8559 60.3383 52.7369L61.1744 52.2525C61.3855 52.1334 61.4694 52.2065 61.3476 52.423L61.1825 52.7342C61.0743 52.9479 61.1555 53.2104 61.3665 53.3268C61.5803 53.435 61.8428 53.3538 61.9592 53.1428L62.7899 51.5787C62.9333 51.3298 63.1362 51.1214 63.3825 50.9645L64.5271 50.3069C64.7409 50.1879 64.9113 50.2826 64.9113 50.5288V51.8493C64.8978 52.1362 64.8166 52.4176 64.6732 52.6665L63.7343 54.171C63.6179 54.3875 63.6964 54.6554 63.9128 54.7717C64.1077 54.8773 64.3539 54.8232 64.4838 54.6446L64.6705 54.3496C64.8004 54.1413 64.9086 54.1764 64.9086 54.4173V55.3833C64.9086 55.6295 65.1062 55.8244 65.3497 55.8244C65.5932 55.8244 65.7935 55.6268 65.7935 55.3833V54.4173C65.7935 54.1737 65.899 54.144 66.0316 54.3496L66.2183 54.6446C66.3482 54.8529 66.6215 54.9152 66.8299 54.7853C67.0382 54.6554 67.1032 54.3821 66.9706 54.1737L66.0316 52.6746C65.8909 52.423 65.807 52.1443 65.7935 51.8574V50.5369C65.7935 50.2907 65.964 50.1933 66.1777 50.315L67.3224 50.9726C67.5659 51.1268 67.7661 51.3379 67.915 51.5868L68.7457 53.1644C68.8593 53.3755 69.1218 53.4567 69.3383 53.3484C69.5493 53.2348 69.6305 52.9723 69.5223 52.7558L69.3572 52.4446C69.2436 52.2282 69.322 52.1497 69.5304 52.2742L70.3747 52.7369C70.583 52.8478 70.8428 52.7775 70.9673 52.5745C71.0809 52.3662 71.0106 52.1064 70.8049 51.9819L69.9688 51.5003C69.7577 51.3758 69.7848 51.2702 70.0283 51.2594L70.399 51.2324H70.3963Z" fill="white"/>
<path id="Vector_21" d="M42.0677 62.1945C42.3139 62.1864 42.506 61.9808 42.4979 61.7372C42.4898 61.491 42.2842 61.2989 42.0406 61.307L40.2682 61.3692C39.9814 61.3692 39.6973 61.2962 39.4429 61.1663L38.2983 60.506C38.1765 60.4654 38.1089 60.3328 38.1495 60.2111C38.1738 60.1407 38.2279 60.0866 38.2983 60.0623L39.4429 59.3993C39.7 59.2694 39.9814 59.1963 40.2682 59.1963L42.0406 59.2586C42.2869 59.2667 42.4925 59.0746 42.4979 58.8283C42.506 58.5821 42.3139 58.3764 42.0677 58.371H41.7132C41.4697 58.371 41.4453 58.2574 41.6537 58.1302L42.4898 57.6485C42.6955 57.5295 42.7685 57.267 42.6522 57.0559C42.5304 56.853 42.2706 56.7799 42.0596 56.8936L41.2234 57.3779C41.0124 57.497 40.9285 57.4239 41.0502 57.2075L41.2153 56.8963C41.3235 56.6825 41.2424 56.42 41.0313 56.3037C40.8175 56.1954 40.5551 56.2766 40.4387 56.4877L39.608 58.0517C39.4646 58.3007 39.2616 58.5117 39.0154 58.666L37.8464 59.2938C37.6326 59.4128 37.4622 59.3181 37.4622 59.0719V57.7514C37.4757 57.4645 37.5542 57.1831 37.7003 56.9342L38.6392 55.4297C38.78 55.2294 38.7339 54.9534 38.531 54.81C38.3281 54.6693 38.0548 54.718 37.9113 54.9182C37.9005 54.9318 37.8924 54.948 37.8843 54.9642L37.6976 55.2592C37.5677 55.4675 37.4594 55.4324 37.4594 55.1915V54.2255C37.4594 53.9793 37.2619 53.7817 37.0157 53.7817C36.7694 53.7817 36.5719 53.9793 36.5719 54.2255V55.1915C36.5719 55.4351 36.4664 55.4648 36.3338 55.2592L36.1471 54.9642C36.0172 54.7559 35.7439 54.6909 35.5355 54.8235C35.3272 54.9534 35.2649 55.2267 35.3948 55.4351L36.3338 56.9396C36.4745 57.1912 36.5584 57.47 36.5719 57.7568V59.0719C36.5719 59.3181 36.4014 59.4155 36.1876 59.2938L35.043 58.6362C34.7995 58.482 34.5965 58.2709 34.4504 58.022L33.6197 56.4444C33.506 56.2333 33.2436 56.1522 33.0271 56.2604C32.816 56.374 32.7349 56.6365 32.8431 56.853L33.0082 57.1642C33.1218 57.3807 33.0433 57.4591 32.835 57.3347L31.9907 56.8719C31.7824 56.761 31.5226 56.8313 31.3981 57.0343C31.2845 57.2426 31.3548 57.5024 31.5605 57.6269L32.3966 58.1086C32.6077 58.233 32.5806 58.3386 32.3371 58.3494H31.9826C31.7364 58.3575 31.5442 58.5632 31.5524 58.8067C31.5605 59.0529 31.7661 59.2451 32.0124 59.2369L33.7848 59.1747C34.0716 59.1747 34.3557 59.2478 34.6128 59.3776L35.7574 60.0379C35.8792 60.0785 35.9468 60.2111 35.9062 60.3328C35.8819 60.4032 35.8278 60.4573 35.7574 60.4817L34.5993 61.1717C34.3422 61.3016 34.0608 61.3746 33.7739 61.3746L32.0015 61.3124C31.7553 61.3043 31.5523 61.4964 31.5442 61.7427C31.5361 61.9889 31.7282 62.1945 31.9745 62.2027H32.329C32.5725 62.2027 32.5968 62.3163 32.3885 62.4435L31.5524 62.9468C31.3521 63.0713 31.2872 63.3338 31.4062 63.5394C31.528 63.7505 31.8013 63.8208 32.0124 63.7018L32.8485 63.2174C33.0596 63.0983 33.1434 63.1714 33.0217 63.3879L32.8566 63.6991C32.7484 63.9128 32.8296 64.1753 33.0406 64.2917C33.2544 64.3999 33.5169 64.3187 33.6332 64.1077L34.464 62.5436C34.6074 62.2947 34.8103 62.0863 35.0566 61.9294L36.2012 61.2718C36.4149 61.1528 36.5854 61.2475 36.5854 61.4937V62.8142C36.5719 63.101 36.4934 63.3825 36.3473 63.6341L35.4083 65.1386C35.292 65.3551 35.3705 65.623 35.5869 65.7393C35.7818 65.8449 36.0253 65.7908 36.1579 65.6122L36.3446 65.3172C36.4745 65.1089 36.5827 65.144 36.5827 65.3849V66.3509C36.5827 66.5971 36.7803 66.7947 37.0238 66.7947C37.2673 66.7947 37.4676 66.5971 37.4676 66.3509V65.3849C37.4676 65.1413 37.5758 65.1089 37.7057 65.3172L37.8924 65.6122C38.0223 65.8205 38.2956 65.8855 38.5039 65.7529C38.7123 65.6203 38.7772 65.3497 38.6446 65.1413L37.7057 63.6422C37.565 63.3906 37.4811 63.1119 37.4676 62.825V61.5045C37.4676 61.2583 37.638 61.1609 37.8518 61.2826L38.9964 61.9402C39.24 62.0944 39.4429 62.3055 39.589 62.5544L40.4198 64.132C40.5334 64.3431 40.7959 64.4242 41.0124 64.316C41.2234 64.2024 41.3046 63.9399 41.1964 63.7234L41.0313 63.4122C40.9177 63.1957 40.9961 63.1173 41.2045 63.2417L42.0487 63.7045C42.2571 63.8154 42.5169 63.7451 42.6413 63.5421C42.755 63.3338 42.6846 63.074 42.479 62.9495L41.6428 62.4678C41.4318 62.3434 41.4588 62.2378 41.7024 62.227L42.0731 62.2L42.0677 62.1945Z" fill="white"/>
<path id="Vector_22" d="M86.7267 9.3227C86.973 9.31458 87.1651 9.10893 87.157 8.86539C87.1488 8.61915 86.9432 8.42703 86.697 8.43515L84.9245 8.49738C84.6377 8.49738 84.3536 8.42432 84.0992 8.29444L82.9546 7.63418C82.8328 7.59359 82.7652 7.461 82.8058 7.33923C82.8301 7.26888 82.8843 7.21476 82.9546 7.19041L84.0992 6.52745C84.3563 6.39756 84.6377 6.3245 84.9245 6.3245L86.697 6.38674C86.9432 6.39486 87.1488 6.20273 87.157 5.95649C87.1651 5.71025 86.973 5.5046 86.7267 5.49919H86.3722C86.1287 5.49919 86.1043 5.38554 86.3127 5.25836L87.1488 4.7767C87.3545 4.65764 87.4248 4.39516 87.3112 4.18409C87.1894 3.98115 86.9297 3.91079 86.7186 4.02174L85.8825 4.5061C85.6714 4.62516 85.5875 4.5521 85.7093 4.33563L85.8743 4.02444C85.9826 3.81067 85.9014 3.5482 85.6903 3.43184C85.4766 3.3236 85.2141 3.40478 85.0977 3.61584L84.267 5.17988C84.1236 5.42883 83.9206 5.63719 83.6744 5.79414L82.5054 6.42192C82.2917 6.54098 82.1212 6.44627 82.1212 6.20003V4.87952C82.1347 4.59269 82.2159 4.31127 82.3593 4.06233L83.2983 2.55782C83.439 2.35758 83.393 2.08157 83.19 1.93815C82.9871 1.79744 82.7138 1.84615 82.5704 2.04639C82.5595 2.05992 82.5514 2.07616 82.5433 2.09239L82.3566 2.38734C82.2267 2.5957 82.1185 2.56052 82.1185 2.31969V1.35637C82.1185 1.11013 81.9209 0.912598 81.6747 0.912598C81.4285 0.912598 81.2309 1.11013 81.2309 1.35637V2.3224C81.2309 2.56593 81.1254 2.5957 80.9928 2.39005L80.8061 2.0951C80.6762 1.88674 80.4029 1.8245 80.1945 1.95439C79.9862 2.08428 79.9212 2.35758 80.0538 2.56593L80.9928 4.07044C81.1335 4.3221 81.2174 4.60081 81.2309 4.88764V6.20273C81.2309 6.44898 81.0604 6.54639 80.8467 6.42462L79.7021 5.76708C79.4585 5.61284 79.2583 5.40177 79.1095 5.15283L78.2787 3.57525C78.1651 3.36419 77.9026 3.28301 77.6861 3.39125C77.4751 3.5049 77.3939 3.76738 77.5021 3.98385L77.6672 4.29504C77.7808 4.51151 77.7024 4.58999 77.494 4.46551L76.6497 4.0028C76.4414 3.89185 76.1816 3.96221 76.0571 4.16515C75.9435 4.37351 76.0139 4.63328 76.2195 4.75776L77.0556 5.23942C77.2667 5.36389 77.2396 5.46942 76.9961 5.48025H76.6416C76.3954 5.48836 76.2033 5.69402 76.2114 5.93755C76.2195 6.18379 76.4252 6.37592 76.6687 6.3678L78.4411 6.30556C78.7279 6.30556 79.012 6.37862 79.2664 6.50851L80.411 7.16876C80.5328 7.20935 80.6004 7.34194 80.5598 7.46371C80.5355 7.53406 80.4814 7.58818 80.411 7.61254L79.2529 8.30255C78.9958 8.43244 78.7144 8.5055 78.4276 8.5055L76.6552 8.44326C76.4089 8.43515 76.2033 8.62727 76.1979 8.87351C76.1897 9.11975 76.3819 9.3254 76.6281 9.33082H76.9826C77.2261 9.33082 77.2505 9.44447 77.0421 9.57165L76.206 10.075C76.0057 10.1994 75.9408 10.4619 76.0599 10.6676C76.1816 10.8786 76.4549 10.949 76.666 10.8299L77.5021 10.3455C77.7132 10.2265 77.7971 10.2995 77.6753 10.516L77.5102 10.8272C77.402 11.041 77.4832 11.3035 77.6942 11.4198C77.908 11.528 78.1705 11.4469 78.2868 11.2358L79.1176 9.67177C79.261 9.42282 79.4639 9.21446 79.7102 9.05752L80.8548 8.39997C81.0686 8.28091 81.239 8.37561 81.239 8.62186V9.94236C81.2255 10.2292 81.147 10.5106 81.0009 10.7596L80.062 12.2641C79.9456 12.4805 80.0241 12.7484 80.2405 12.8648C80.4354 12.9703 80.6816 12.9162 80.8115 12.7376L80.9982 12.4427C81.1281 12.2343 81.2363 12.2695 81.2363 12.5103V13.4763C81.2363 13.7226 81.4339 13.9201 81.6774 13.9201C81.9209 13.9201 82.1212 13.7226 82.1212 13.4763V12.5103C82.1212 12.2668 82.2267 12.237 82.3593 12.4427L82.546 12.7376C82.6759 12.946 82.9492 13.0082 83.1576 12.8783C83.3659 12.7484 83.4309 12.4751 83.2983 12.2668L82.3593 10.7677C82.2186 10.516 82.1347 10.2373 82.1212 9.95048V8.62997C82.1212 8.38373 82.2917 8.28632 82.5054 8.40809L83.65 9.06563C83.8936 9.21987 84.0965 9.43094 84.2427 9.67988L85.0734 11.2575C85.187 11.4685 85.4495 11.5497 85.666 11.4415C85.877 11.3278 85.9582 11.0653 85.85 10.8489L85.6849 10.5377C85.5713 10.3212 85.6497 10.2427 85.8581 10.3672L86.7024 10.8299C86.9107 10.9409 87.1705 10.8705 87.295 10.6676C87.4086 10.4592 87.3383 10.1994 87.1326 10.075L86.2965 9.59329C86.0854 9.46882 86.1125 9.36329 86.356 9.35246L86.7267 9.3254H86.724L86.7267 9.3227Z" fill="white"/>
<path id="Vector_23" d="M30.1696 38.7336C30.4158 38.7255 30.608 38.5198 30.5999 38.2763C30.5917 38.0301 30.3861 37.8379 30.1425 37.8461L28.3701 37.9083C28.0833 37.9083 27.7992 37.8352 27.5448 37.7053L26.4002 37.0451C26.2784 37.0045 26.2108 36.8719 26.2514 36.7501C26.2757 36.6798 26.3299 36.6257 26.4002 36.6013L27.5448 35.9384C27.8019 35.8085 28.0833 35.7354 28.3701 35.7354L30.1425 35.7976C30.3888 35.8058 30.5944 35.6136 30.5999 35.3674C30.608 35.1212 30.4158 34.9182 30.1696 34.9101H29.8151C29.5716 34.9101 29.5472 34.7964 29.7556 34.6693L30.5917 34.1876C30.7974 34.0685 30.8677 33.8061 30.7541 33.595C30.6323 33.3921 30.3726 33.3217 30.1615 33.4326L29.3253 33.917C29.1143 34.0361 29.0304 33.963 29.1522 33.7465L29.3172 33.4354C29.4255 33.2216 29.3443 32.9591 29.1332 32.8427C28.9195 32.7345 28.657 32.8157 28.5406 33.0268L27.7099 34.5908C27.5665 34.8397 27.3635 35.0481 27.1173 35.205L25.9483 35.8328C25.7345 35.9519 25.5641 35.8572 25.5641 35.6109V34.2904C25.5776 34.0036 25.6588 33.7222 25.8022 33.4732L26.7412 31.9687C26.8819 31.7685 26.8332 31.4925 26.6329 31.3491C26.43 31.2084 26.1567 31.2544 26.0133 31.4573C26.0024 31.4708 25.9943 31.4871 25.9862 31.5033L25.7995 31.7983C25.6696 32.0066 25.5614 31.9714 25.5614 31.7306V30.7646C25.5614 30.5183 25.3638 30.3208 25.1176 30.3208C24.8713 30.3208 24.6738 30.5183 24.6738 30.7646V31.7306C24.6738 31.9741 24.5683 32.0039 24.4357 31.7983L24.249 31.5033C24.1191 31.2949 23.8458 31.23 23.6374 31.3626C23.4291 31.4925 23.3668 31.7658 23.4967 31.9741L24.4357 33.4786C24.5764 33.7303 24.6603 34.009 24.6738 34.2986V35.6136C24.6738 35.8599 24.5033 35.9573 24.2896 35.8355L23.145 35.178C22.9014 35.0237 22.6985 34.8127 22.5523 34.5637L21.7216 32.9862C21.608 32.7751 21.3455 32.6939 21.129 32.8022C20.918 32.9158 20.8368 33.1783 20.945 33.3948L21.1101 33.7059C21.2237 33.9224 21.1453 34.0009 20.9369 33.8764L20.0926 33.4137C19.8843 33.3028 19.6245 33.3731 19.5 33.5761C19.3864 33.7844 19.4567 34.0442 19.6624 34.1687L20.4985 34.6503C20.7096 34.7748 20.6825 34.8803 20.439 34.8912H20.0845C19.8383 34.8993 19.6462 35.1049 19.6543 35.3485C19.6624 35.5947 19.868 35.7868 20.1116 35.7787L21.884 35.7165C22.1708 35.7165 22.4549 35.7895 22.7093 35.9194L23.8539 36.5797C23.9757 36.6203 24.0433 36.7528 24.0027 36.8746C23.9784 36.945 23.9243 36.9991 23.8539 37.0234L22.6958 37.7135C22.4414 37.8434 22.1573 37.9164 21.8704 37.9164L20.0981 37.8542C19.8518 37.8461 19.6462 38.0382 19.6407 38.2844C19.6326 38.5307 19.8248 38.7336 20.071 38.7417H20.4255C20.669 38.7417 20.6961 38.8554 20.485 38.9826L19.6489 39.4859C19.4486 39.6103 19.3864 39.8728 19.5027 40.0785C19.6245 40.2895 19.8978 40.3599 20.1089 40.2408L20.945 39.7565C21.1561 39.6374 21.24 39.7105 21.1182 39.9269L20.9531 40.2381C20.8449 40.4519 20.9261 40.7144 21.1371 40.8307C21.3509 40.939 21.6134 40.8578 21.7297 40.6467L22.5605 39.0827C22.7039 38.8337 22.9068 38.6254 23.1531 38.4684L24.2977 37.8109C24.5115 37.6918 24.6819 37.7865 24.6819 38.0328V39.3533C24.6684 39.6401 24.5872 39.9215 24.4438 40.1732L23.5048 41.6777C23.3885 41.8942 23.467 42.1621 23.6834 42.2784C23.8783 42.3839 24.1245 42.3298 24.2544 42.1512L24.4411 41.8563C24.571 41.6479 24.6792 41.6831 24.6792 41.9239V42.89C24.6792 43.1362 24.8768 43.3337 25.1203 43.3337C25.3638 43.3337 25.5641 43.1362 25.5641 42.89V41.9239C25.5641 41.6804 25.6696 41.6506 25.8022 41.8563L25.9889 42.1512C26.1188 42.3596 26.3921 42.4218 26.6005 42.2919C26.8088 42.1621 26.8738 41.8888 26.7412 41.6804L25.8022 40.1813C25.6615 39.9296 25.5776 39.6509 25.5641 39.3641V38.0436C25.5641 37.7973 25.7345 37.6999 25.9483 37.8217L27.0929 38.4792C27.3365 38.6335 27.5394 38.8446 27.6855 39.0935L28.5163 40.6711C28.6299 40.8821 28.8924 40.9633 29.1089 40.8551C29.3199 40.7414 29.4011 40.4789 29.2929 40.2625L29.1278 39.9513C29.0142 39.7348 29.0926 39.6563 29.301 39.7808L30.1453 40.2435C30.3536 40.3545 30.6134 40.2841 30.7379 40.0812C30.8515 39.8728 30.7812 39.613 30.5755 39.4886L29.7394 39.0069C29.5283 38.8824 29.5554 38.7769 29.7989 38.7661L30.1696 38.739H30.1669L30.1696 38.7336Z" fill="white"/>
<path id="Vector_24" d="M158.359 87.8874C158.605 87.8793 158.797 87.6737 158.789 87.4301C158.781 87.1839 158.575 86.9918 158.332 86.9999L156.559 87.0621C156.272 87.0621 155.988 86.989 155.734 86.8592L154.589 86.1989C154.468 86.1583 154.4 86.0257 154.441 85.904C154.465 85.8336 154.519 85.7795 154.589 85.7551L155.734 85.0922C155.991 84.9623 156.272 84.8892 156.559 84.8892L158.332 84.9515C158.578 84.9596 158.781 84.7675 158.789 84.5212C158.797 84.275 158.605 84.0693 158.359 84.0639H158.004C157.761 84.0639 157.736 83.9503 157.945 83.8231L158.781 83.3414C158.987 83.2224 159.057 82.9599 158.943 82.7488C158.821 82.5459 158.562 82.4728 158.351 82.5865L157.514 83.0708C157.303 83.1899 157.22 83.1168 157.341 82.9003L157.506 82.5892C157.615 82.3754 157.533 82.1129 157.322 81.9966C157.109 81.8883 156.846 81.9695 156.73 82.1806L155.899 83.7446C155.756 83.9936 155.553 84.2046 155.306 84.3589L154.137 84.9866C153.924 85.1057 153.753 85.011 153.753 84.7648V83.4442C153.767 83.1574 153.845 82.876 153.991 82.6271L154.93 81.1225C155.071 80.9223 155.025 80.6463 154.822 80.5029C154.619 80.3622 154.346 80.4082 154.202 80.6111C154.192 80.6246 154.183 80.6409 154.175 80.6571L153.989 80.9521C153.859 81.1604 153.751 81.1252 153.751 80.8844V79.9184C153.751 79.6721 153.553 79.4746 153.307 79.4746C153.06 79.4746 152.863 79.6721 152.863 79.9184V80.8844C152.863 81.128 152.757 81.1604 152.625 80.9521L152.438 80.6571C152.308 80.4488 152.035 80.3838 151.827 80.5164C151.618 80.6463 151.556 80.9196 151.686 81.128L152.625 82.6325C152.766 82.8841 152.849 83.1628 152.863 83.4524V84.7675C152.863 85.0137 152.692 85.1111 152.479 84.9893L151.334 84.3318C151.091 84.1776 150.89 83.9665 150.742 83.7175L149.911 82.14C149.797 81.9289 149.535 81.8477 149.318 81.956C149.107 82.0696 149.026 82.3321 149.134 82.5486L149.299 82.8598C149.413 83.0762 149.334 83.1547 149.126 83.0302L148.282 82.5675C148.073 82.4566 147.814 82.5269 147.689 82.7299C147.576 82.9382 147.646 83.198 147.852 83.3225L148.688 83.8041C148.899 83.9286 148.872 84.0341 148.628 84.045H148.274C148.027 84.0531 147.835 84.2587 147.843 84.5023C147.852 84.7485 148.057 84.9406 148.301 84.9325L150.073 84.8703C150.36 84.8703 150.644 84.9433 150.898 85.0732L152.043 85.7335C152.165 85.7741 152.232 85.9067 152.192 86.0284C152.168 86.0988 152.113 86.1529 152.043 86.1773L150.888 86.8673C150.631 86.9972 150.349 87.0702 150.06 87.0702L148.287 87.008C148.041 86.9999 147.835 87.192 147.827 87.4382C147.819 87.6845 148.011 87.8901 148.257 87.8955H148.612C148.855 87.8955 148.883 88.0092 148.671 88.1364L147.835 88.6397C147.635 88.7642 147.57 89.0266 147.689 89.2323C147.811 89.4433 148.084 89.5137 148.295 89.3946L149.131 88.9103C149.343 88.7912 149.426 88.8643 149.305 89.0807L149.14 89.3919C149.031 89.6057 149.113 89.8682 149.324 89.9845C149.537 90.0928 149.8 90.0116 149.916 89.8005L150.747 88.2365C150.89 87.9875 151.093 87.7792 151.34 87.6222L152.484 86.9647C152.698 86.8456 152.868 86.9403 152.868 87.1866V88.5071C152.855 88.7939 152.774 89.0753 152.63 89.327L151.691 90.8315C151.575 91.048 151.653 91.3159 151.87 91.4322C152.065 91.5377 152.311 91.4836 152.441 91.305L152.628 91.0101C152.757 90.8017 152.866 90.8369 152.866 91.0777V92.0438C152.866 92.29 153.063 92.4875 153.309 92.4875C153.556 92.4875 153.753 92.29 153.753 92.0438V91.0777C153.753 90.8342 153.859 90.8017 153.991 91.0101L154.178 91.305C154.308 91.5134 154.581 91.5783 154.79 91.4458C154.998 91.3159 155.063 91.0426 154.93 90.8342L153.991 89.3351C153.851 89.0834 153.767 88.8047 153.753 88.5179V87.1974C153.753 86.9512 153.924 86.8537 154.137 86.9755L155.282 87.6331C155.526 87.7873 155.726 87.9984 155.875 88.2473L156.705 89.8249C156.819 90.0359 157.082 90.1171 157.298 90.0089C157.509 89.8952 157.59 89.6328 157.482 89.4163L157.317 89.1051C157.203 88.8886 157.282 88.8102 157.49 88.9346L158.334 89.3973C158.543 89.5083 158.803 89.4379 158.927 89.235C159.041 89.0266 158.97 88.7669 158.765 88.6424L157.929 88.1607C157.717 88.0362 157.744 87.9307 157.988 87.9199L158.359 87.8928V87.8874Z" fill="white"/>
<path id="Vector_25" d="M97.6372 11.4738C98.679 11.4738 99.5259 10.6295 99.5259 9.58504C99.5259 8.54055 98.6817 7.69629 97.6372 7.69629C96.5927 7.69629 95.7484 8.54055 95.7484 9.58504C95.7484 10.6295 96.5927 11.4738 97.6372 11.4738Z" fill="white"/>
<path id="Vector_26" d="M111.245 73.903C112.287 73.903 113.134 73.0587 113.134 72.0142C113.134 70.9697 112.29 70.1255 111.245 70.1255C110.201 70.1255 109.357 70.9697 109.357 72.0142C109.357 73.0587 110.201 73.903 111.245 73.903Z" fill="white"/>
<path id="Vector_27" d="M65.3579 11.4738C66.3996 11.4738 67.2466 10.6295 67.2466 9.58504C67.2466 8.54055 66.4023 7.69629 65.3579 7.69629C64.3134 7.69629 63.4718 8.54055 63.4718 9.58504C63.4718 10.6295 64.3161 11.4738 65.3579 11.4738Z" fill="white"/>
<path id="Vector_28" d="M116.476 19.9977C117.518 19.9977 118.365 19.1534 118.365 18.1116C118.365 17.0698 117.52 16.2256 116.476 16.2256C115.431 16.2256 114.587 17.0698 114.587 18.1116C114.587 19.1534 115.431 19.9977 116.476 19.9977Z" fill="white"/>
<path id="Vector_29" d="M84.332 75.3671C85.3738 75.3671 86.2207 74.5228 86.2207 73.4783C86.2207 72.4338 85.3765 71.5923 84.332 71.5923C83.2875 71.5923 82.4432 72.4365 82.4432 73.4783C82.4432 74.5201 83.2875 75.3671 84.332 75.3671Z" fill="white"/>
<path id="Vector_30" d="M67.1817 85.9767C68.2235 85.9767 69.0677 85.1325 69.0677 84.088C69.0677 83.0435 68.2235 82.1992 67.1817 82.1992C66.1399 82.1992 65.2929 83.0435 65.2929 84.088C65.2929 85.1325 66.1372 85.9767 67.1817 85.9767Z" fill="white"/>
<path id="Vector_31" d="M31.1113 90.9259C32.1531 90.9259 33.0001 90.0817 33.0001 89.0372C33.0001 87.9927 32.1558 87.1484 31.1113 87.1484C30.0669 87.1484 29.2226 87.9927 29.2226 89.0372C29.2226 90.0817 30.0669 90.9259 31.1113 90.9259Z" fill="white"/>
<path id="Vector_32" d="M14.6077 64.5402C15.6495 64.5402 16.4964 63.696 16.4964 62.6515C16.4964 61.607 15.6522 60.7627 14.6077 60.7627C13.5632 60.7627 12.7189 61.607 12.7189 62.6515C12.7189 63.696 13.5632 64.5402 14.6077 64.5402Z" fill="white"/>
<path id="Vector_33" d="M107.752 42.8305C108.794 42.8305 109.638 41.9862 109.638 40.9417C109.638 39.8972 108.794 39.0557 107.752 39.0557C106.71 39.0557 105.863 39.8999 105.863 40.9417C105.863 41.9835 106.707 42.8305 107.752 42.8305Z" fill="white"/>
<path id="Vector_34" d="M99.8236 51.9306C100.865 51.9306 101.712 51.0863 101.712 50.0445C101.712 49.0027 100.868 48.1558 99.8236 48.1558C98.7791 48.1558 97.9348 49 97.9348 50.0445C97.9348 51.089 98.7791 51.9306 99.8236 51.9306Z" fill="white"/>
<path id="Vector_35" d="M22.5091 84.2855C23.5508 84.2855 24.3951 83.4413 24.3951 82.3995C24.3951 81.3577 23.5508 80.5107 22.5091 80.5107C21.4673 80.5107 20.6203 81.355 20.6203 82.3995C20.6203 83.444 21.4646 84.2855 22.5091 84.2855Z" fill="white"/>
<path id="Vector_36" d="M153.323 105.295C154.365 105.295 155.212 104.451 155.212 103.409C155.212 102.367 154.367 101.52 153.323 101.52C152.278 101.52 151.437 102.364 151.437 103.409C151.437 104.453 152.281 105.295 153.323 105.295Z" fill="white"/>
</g>
<defs>
<clipPath id="clip0_119_2969">
<rect width="158.204" height="105.08" fill="white" transform="translate(0.796509 0.912598)"/>
</clipPath>
</defs>
</svg>
