<svg width="33" height="281" viewBox="0 0 33 281" fill="none" xmlns="http://www.w3.org/2000/svg">
<path d="M5.15183 120.685C4.7173 69.9458 15.4456 21.9396 28.8856 0.983325C29.4187 0.152088 30.5309 -0.0345732 31.3372 0.535575C32.1093 1.08155 32.316 2.13525 31.8308 2.94686C22.4521 18.632 10.2475 53.6005 10.2475 120.685C10.2475 203.677 35.9693 204.826 32.7154 257.09C31.7678 272.31 25.3354 279.504 17.428 280.405C6.49937 281.651 -0.349786 270.29 0.0137838 264.27C0.603438 254.506 6.27717 250.822 12.0163 251.347C17.6161 251.86 22.914 256.031 21.7447 262.841C21.5011 264.26 19.9146 264.884 18.6169 264.261C17.5779 263.763 17.0773 262.607 17.1067 261.455C17.1939 258.037 14.8654 256.627 11.4267 257.09C6.7631 257.719 5.15182 263.408 5.90976 267.141C6.6677 270.875 9.53157 273.801 14.9012 274.033C20.2709 274.266 27.3039 268.29 27.3039 256.229C27.3039 202.008 5.90976 209.187 5.15183 120.685Z" fill="white"/>
</svg>
