<svg width="31" height="208" viewBox="0 0 31 208" fill="none" xmlns="http://www.w3.org/2000/svg">
<path id="&#208;&#186;&#208;&#184;&#208;&#189;&#208;&#190;&#208;&#187;&#208;&#181;&#208;&#189;&#209;&#130;&#208;&#176; 1" d="M13.458 80.7368C13.458 61.7455 16.0803 21.2581 27.4608 1.48607C27.9273 0.67557 28.9969 0.493063 29.7374 1.06428C30.3689 1.55146 30.5409 2.42505 30.1699 3.1311C22.2819 18.1435 17.351 53.5833 18.4246 80.7368C18.226 130.821 31.6689 155.726 30.5652 185.284C29.7374 199.789 24.7708 208 14.5616 208C4.35245 208 -0.0623255 197.874 -0.0623253 192.126C-0.0623248 182 5.18022 179.537 10.4228 179.263C14.9173 179.029 19.6146 183.42 20.342 189.852C20.5312 191.526 18.7923 192.582 17.2331 191.946C16.2849 191.558 15.7005 190.63 15.5435 189.618C15.102 186.772 13.4504 185.053 10.4228 185.284C7.6666 185.494 5.45615 187.747 5.45615 193.221C5.45615 198.695 8.76723 201.757 13.458 201.979C19.2523 202.253 25.3227 196.505 25.3227 185.011C25.3227 152.442 13.458 125.347 13.458 80.7368Z" fill="white"/>
</svg>
