<svg width="207" height="282" viewBox="0 0 207 282" fill="none" xmlns="http://www.w3.org/2000/svg">
<path d="M86.4831 276.677C86.4831 274.386 84.8707 272.425 82.6521 271.856C50.9711 263.733 24.4644 237.487 10.1255 201.978C9.34641 200.048 7.49031 198.756 5.40967 198.756H5C2.23858 198.756 0 200.994 0 203.756V276.509C0 279.27 2.23858 281.509 5 281.509H81.6508C84.3196 281.509 86.4831 279.345 86.4831 276.677Z" fill="#13544D"/>
<path d="M201.59 198.756C199.51 198.756 197.654 200.049 196.875 201.978C182.462 237.674 155.752 264.01 123.854 271.988C121.654 272.538 120.051 274.478 120.051 276.745C120.051 279.376 122.183 281.509 124.814 281.509H202C204.761 281.509 207 279.27 207 276.509V203.756C207 200.994 204.761 198.756 202 198.756H201.59Z" fill="#13544D"/>
<path d="M86.4831 5.67871C86.4831 3.01019 84.3198 0.846924 81.6513 0.846924H5C2.23857 0.846924 0 3.0855 0 5.84692V79.0665C0 81.8279 2.23858 84.0665 5 84.0665H5.22952C7.31625 84.0665 9.17644 82.7662 9.95141 80.8287C24.2474 45.0872 50.8437 18.6491 82.6514 10.4994C84.8703 9.93085 86.4831 7.9693 86.4831 5.67871Z" fill="#13544D"/>
<path d="M124.814 0.846924C122.183 0.846924 120.051 2.97968 120.051 5.61056C120.051 7.87833 121.654 9.81778 123.854 10.3681C155.879 18.3799 182.678 44.9085 197.048 80.8289C197.823 82.7663 199.684 84.0665 201.77 84.0665H202C204.761 84.0665 207 81.8279 207 79.0665V5.84693C207 3.08551 204.761 0.846924 202 0.846924H124.814Z" fill="#13544D"/>
<path d="M104.199 44.6711C65.317 44.6711 33.8008 88.0852 33.8008 141.644C33.8008 195.203 65.317 238.617 104.199 238.617C143.082 238.617 174.598 195.203 174.598 141.644C174.598 88.0852 143.082 44.6711 104.199 44.6711ZM112.125 144.57C112.125 147.331 109.886 149.57 107.125 149.57H101.274C98.5123 149.57 96.2737 147.331 96.2737 144.57V138.718C96.2737 135.957 98.5123 133.718 101.274 133.718H107.125C109.886 133.718 112.125 135.957 112.125 138.718V144.57Z" fill="#13544D"/>
</svg>
