<svg width="207" height="209" viewBox="0 0 207 209" fill="none" xmlns="http://www.w3.org/2000/svg">
<g id="&#208;&#191;&#208;&#187;&#208;&#176;&#208;&#189;">
<path id="Vector" d="M89 80C91.7614 80 94 77.7614 94 75V5C94 2.23858 91.7614 0 89 0H5C2.23858 0 0 2.23858 0 5V89C0 91.7614 2.23858 94 5 94H76C78.7614 94 81 91.7614 81 89V85C81 82.2386 83.2386 80 86 80H89Z" fill="#13544D"/>
<path id="Vector_2" d="M126 89C126 91.7614 128.239 94 131 94H202C204.761 94 207 91.7614 207 89V5C207 2.23858 204.761 0 202 0H118C115.239 0 113 2.23858 113 5V75C113 77.7614 115.239 80 118 80H121C123.761 80 126 82.2386 126 85V89Z" fill="#13544D"/>
<path id="Vector_3" d="M81 120C81 117.239 78.7614 115 76 115H5C2.23858 115 0 117.239 0 120V204C0 206.761 2.23858 209 5 209H89C91.7614 209 94 206.761 94 204V134C94 131.239 91.7614 129 89 129H86C83.2386 129 81 126.761 81 124V120Z" fill="#13544D"/>
<path id="Vector_4" d="M118 129C115.239 129 113 131.239 113 134V204C113 206.761 115.239 209 118 209H202C204.761 209 207 206.761 207 204V120C207 117.239 204.761 115 202 115H131C128.239 115 126 117.239 126 120V124C126 126.761 123.761 129 121 129H118Z" fill="#13544D"/>
</g>
</svg>
